<?xml version="1.0" standalone="no"?>
<!DOCTYPE svg PUBLIC "-//W3C//DTD SVG 20010904//EN" "http://www.w3.org/TR/2001/REC-SVG-20010904/DTD/svg10.dtd">
<!-- Created using Krita: https://krita.org -->
<svg xmlns="http://www.w3.org/2000/svg" 
    xmlns:xlink="http://www.w3.org/1999/xlink"
    xmlns:krita="http://krita.org/namespaces/svg/krita"
    xmlns:sodipodi="http://sodipodi.sourceforge.net/DTD/sodipodi-0.dtd"
    width="368.64pt"
    height="368.64pt"
    viewBox="0 0 368.64 368.64">
<defs/>
<path id="shape0" fill="#ffffff" fill-rule="evenodd" stroke="none" stroke-width="28.8" stroke-linecap="square" stroke-linejoin="bevel" d="M302.496 89.4868L325.536 129.393L325.956 130.19L326.308 131.005L326.593 131.833L326.812 132.672L326.966 133.517L327.055 134.366L327.081 135.215L327.045 136.06L326.947 136.898L326.788 137.726L326.57 138.54L326.294 139.335L325.959 140.11L325.568 140.861L325.121 141.583L324.619 142.273L324.064 142.929L323.455 143.546L322.794 144.12L322.082 144.65L321.319 145.13L286.268 165.367L286.33 165.683L286.768 168.285L287.141 170.909L287.448 173.553L287.688 176.217L287.861 178.901L287.965 181.602L288 184.32L287.965 187.038L287.861 189.739L287.688 192.423L287.448 195.087L287.141 197.731L286.768 200.355L286.33 202.957L286.195 203.647L320.599 223.51L321.362 223.99L322.074 224.52L322.735 225.094L323.344 225.711L323.899 226.367L324.401 227.057L324.848 227.779L325.239 228.53L325.574 229.304L325.85 230.1L326.068 230.914L326.227 231.741L326.325 232.58L326.361 233.425L326.335 234.274L326.246 235.123L326.092 235.968L325.873 236.807L325.588 237.635L325.236 238.45L324.816 239.247L301.776 279.153L301.296 279.916L300.767 280.628L300.192 281.289L299.575 281.898L298.919 282.453L298.229 282.955L297.507 283.402L296.756 283.793L295.982 284.128L295.186 284.404L294.372 284.622L293.545 284.781L292.706 284.879L291.861 284.915L291.012 284.889L290.163 284.8L289.318 284.646L288.479 284.427L287.651 284.142L286.836 283.79L286.039 283.37L251.402 263.372L251.12 263.616L249.167 265.223L247.174 266.782L245.143 268.294L243.074 269.757L240.968 271.171L238.826 272.533L236.649 273.845L234.438 275.104L232.193 276.31L229.916 277.462L227.607 278.559L225.267 279.601L222.897 280.586L220.497 281.514L218.88 282.093L218.88 322.56L218.812 323.815L218.614 325.031L218.293 326.201L217.855 327.318L217.307 328.374L216.657 329.364L215.912 330.278L215.078 331.112L214.164 331.857L213.174 332.507L212.118 333.055L211.001 333.493L209.831 333.814L208.615 334.012L207.36 334.08L161.28 334.08L160.025 334.012L158.809 333.814L157.639 333.493L156.522 333.055L155.466 332.507L154.476 331.857L153.562 331.112L152.728 330.278L151.983 329.364L151.333 328.374L150.785 327.318L150.347 326.201L150.026 325.031L149.828 323.815L149.76 322.56L149.76 282.093L148.143 281.514L145.743 280.586L143.373 279.601L141.033 278.559L138.724 277.462L136.447 276.31L134.202 275.104L131.991 273.845L129.814 272.533L127.672 271.171L125.566 269.757L123.497 268.294L121.466 266.782L119.473 265.223L117.52 263.616L116.95 263.123L81.8807 283.37L81.0837 283.79L80.2693 284.142L79.441 284.427L78.6023 284.646L77.7567 284.8L76.9077 284.889L76.0589 284.915L75.2136 284.879L74.3754 284.781L73.5478 284.622L72.7343 284.404L71.9384 284.128L71.1636 283.793L70.4133 283.402L69.6912 282.955L69.0006 282.453L68.3451 281.898L67.7282 281.289L67.1534 280.628L66.6242 279.916L66.144 279.153L43.104 239.247L42.6839 238.45L42.3318 237.635L42.0468 236.807L41.828 235.968L41.6743 235.123L41.585 234.274L41.559 233.425L41.5953 232.58L41.6932 231.741L41.8516 230.914L42.0696 230.1L42.3462 229.304L42.6805 228.53L43.0717 227.779L43.5186 227.057L44.0205 226.367L44.5764 225.711L45.1852 225.094L45.8462 224.52L46.5583 223.99L47.3207 223.51L82.3721 203.273L82.3104 202.957L81.8724 200.355L81.4994 197.731L81.1923 195.087L80.9519 192.423L80.7792 189.739L80.6749 187.038L80.64 184.32L80.6749 181.602L80.7792 178.901L80.9519 176.217L81.1923 173.553L81.4994 170.909L81.8724 168.285L82.3007 165.741L46.6006 145.13L45.8383 144.65L45.1262 144.12L44.4652 143.546L43.8564 142.929L43.3005 142.273L42.7986 141.583L42.3517 140.861L41.9605 140.11L41.6262 139.335L41.3496 138.54L41.1316 137.726L40.9732 136.898L40.8753 136.06L40.839 135.215L40.865 134.366L40.9543 133.517L41.108 132.672L41.3268 131.833L41.6118 131.005L41.9639 130.19L42.384 129.393L65.424 89.4868L65.9042 88.7244L66.4334 88.0123L67.0082 87.3513L67.6251 86.7425L68.2806 86.1866L68.9712 85.6848L69.6933 85.2378L70.4435 84.8467L71.2184 84.5123L72.0143 84.2357L72.8278 84.0177L73.6554 83.8593L74.4936 83.7615L75.3388 83.7251L76.1877 83.7511L77.0367 83.8404L77.8823 83.9941L78.721 84.2129L79.5493 84.4979L80.3636 84.85L81.1606 85.2702L116.661 105.767L117.52 105.024L119.473 103.417L121.466 101.858L123.497 100.346L125.566 98.8828L127.672 97.4695L129.814 96.1067L131.991 94.7954L134.202 93.5362L136.447 92.3302L138.724 91.1782L141.033 90.0809L143.373 89.0393L145.743 88.0542L148.143 87.1265L149.76 86.5472L149.76 46.08L149.828 44.8248L150.026 43.6087L150.347 42.4388L150.785 41.3221L151.333 40.2656L151.983 39.2764L152.728 38.3615L153.562 37.5279L154.476 36.7827L155.466 36.1328L156.522 35.5853L157.639 35.1473L158.809 34.8257L160.025 34.6276L161.28 34.56L207.36 34.56L208.615 34.6276L209.831 34.8257L211.001 35.1473L212.118 35.5853L213.174 36.1328L214.164 36.7827L215.078 37.5279L215.912 38.3615L216.657 39.2764L217.307 40.2656L217.855 41.3221L218.293 42.4388L218.614 43.6087L218.812 44.8248L218.88 46.08L218.88 86.5472L220.497 87.1265L222.897 88.0542L225.267 89.0393L227.607 90.0809L229.916 91.1782L232.193 92.3302L234.438 93.5362L236.649 94.7954L238.826 96.1067L240.968 97.4695L243.074 98.8828L245.143 100.346L247.174 101.858L249.167 103.417L251.12 105.024L251.69 105.517L286.759 85.2702L287.556 84.85L288.371 84.4979L289.199 84.2129L290.038 83.9941L290.883 83.8404L291.732 83.7511L292.581 83.7251L293.426 83.7615L294.265 83.8593L295.092 84.0177L295.906 84.2357L296.702 84.5123L297.476 84.8467L298.227 85.2378L298.949 85.6848L299.639 86.1866L300.295 86.7425L300.912 87.3513L301.487 88.0123L302.016 88.7244L302.496 89.4868M241.92 184.32L241.901 182.81L241.843 181.309L241.747 179.819L241.613 178.339L241.443 176.87L241.235 175.412L240.992 173.966L240.713 172.533L240.399 171.113L240.05 169.706L239.667 168.313L239.25 166.934L238.799 165.57L238.316 164.221L237.801 162.889L237.254 161.572L236.675 160.272L236.065 158.989L235.425 157.724L234.755 156.477L234.056 155.248L233.327 154.039L232.57 152.849L231.785 151.679L230.972 150.53L230.132 149.401L229.266 148.294L228.373 147.209L227.455 146.146L226.511 145.107L225.543 144.09L224.55 143.097L223.533 142.129L222.494 141.185L221.431 140.267L220.346 139.374L219.239 138.508L218.11 137.668L216.961 136.855L215.791 136.07L214.601 135.313L213.392 134.584L212.163 133.885L210.916 133.215L209.651 132.575L208.368 131.965L207.068 131.386L205.751 130.839L204.419 130.324L203.07 129.841L201.706 129.39L200.327 128.973L198.934 128.59L197.527 128.241L196.107 127.927L194.674 127.648L193.228 127.405L191.77 127.197L190.301 127.027L188.821 126.893L187.331 126.797L185.83 126.739L184.32 126.72L182.81 126.739L181.309 126.797L179.819 126.893L178.339 127.027L176.87 127.197L175.412 127.405L173.966 127.648L172.533 127.927L171.113 128.241L169.706 128.59L168.313 128.973L166.934 129.39L165.57 129.841L164.221 130.324L162.889 130.839L161.572 131.386L160.272 131.965L158.989 132.575L157.724 133.215L156.477 133.885L155.248 134.584L154.039 135.313L152.849 136.07L151.679 136.855L150.53 137.668L149.401 138.508L148.294 139.374L147.209 140.267L146.146 141.185L145.107 142.129L144.09 143.097L143.097 144.09L142.129 145.107L141.185 146.146L140.267 147.209L139.374 148.294L138.508 149.401L137.668 150.53L136.855 151.679L136.07 152.849L135.313 154.039L134.584 155.248L133.885 156.477L133.215 157.724L132.575 158.989L131.965 160.272L131.386 161.572L130.839 162.889L130.324 164.221L129.841 165.57L129.39 166.934L128.973 168.313L128.59 169.706L128.241 171.113L127.927 172.533L127.648 173.966L127.405 175.412L127.197 176.87L127.027 178.339L126.893 179.819L126.797 181.309L126.739 182.81L126.72 184.32L126.739 185.83L126.797 187.331L126.893 188.821L127.027 190.301L127.197 191.77L127.405 193.228L127.648 194.674L127.927 196.107L128.241 197.527L128.59 198.934L128.973 200.327L129.39 201.706L129.841 203.07L130.324 204.419L130.839 205.751L131.386 207.068L131.965 208.368L132.575 209.651L133.215 210.916L133.885 212.163L134.584 213.392L135.313 214.601L136.07 215.791L136.855 216.961L137.668 218.11L138.508 219.239L139.374 220.346L140.267 221.431L141.185 222.494L142.129 223.533L143.097 224.55L144.09 225.543L145.107 226.511L146.146 227.455L147.209 228.373L148.294 229.266L149.401 230.132L150.53 230.972L151.679 231.785L152.849 232.57L154.039 233.327L155.248 234.056L156.477 234.755L157.724 235.425L158.989 236.065L160.272 236.675L161.572 237.254L162.889 237.801L164.221 238.316L165.57 238.799L166.934 239.25L168.313 239.667L169.706 240.05L171.113 240.399L172.533 240.713L173.966 240.992L175.412 241.235L176.87 241.443L178.339 241.613L179.819 241.747L181.309 241.843L182.81 241.901L184.32 241.92L185.83 241.901L187.331 241.843L188.821 241.747L190.301 241.613L191.77 241.443L193.228 241.235L194.674 240.992L196.107 240.713L197.527 240.399L198.934 240.05L200.327 239.667L201.706 239.25L203.07 238.799L204.419 238.316L205.751 237.801L207.068 237.254L208.368 236.675L209.651 236.065L210.916 235.425L212.163 234.755L213.392 234.056L214.601 233.327L215.791 232.57L216.961 231.785L218.11 230.972L219.239 230.132L220.346 229.266L221.431 228.373L222.494 227.455L223.533 226.511L224.55 225.543L225.543 224.55L226.511 223.533L227.455 222.494L228.373 221.431L229.266 220.346L230.132 219.239L230.972 218.11L231.785 216.961L232.57 215.791L233.327 214.601L234.056 213.392L234.755 212.163L235.425 210.916L236.065 209.651L236.675 208.368L237.254 207.068L237.801 205.751L238.316 204.419L238.799 203.07L239.25 201.706L239.667 200.327L240.05 198.934L240.399 197.527L240.713 196.107L240.992 194.674L241.235 193.228L241.443 191.77L241.613 190.301L241.747 188.821L241.843 187.331L241.901 185.83L241.92 184.32" sodipodi:nodetypes="ccccccccccccccccccccccccccccccccccccccccccccccccccccccccccccccccccccccccccccccccccccccccccccccccccccccccccccccccccccccccccccccccccccccccccccccccccccccccccccccccccccccccccccccccccccccccccccccccccccccccccccccccccccccccccccccccccccccccccccccccccccccccccccccccccccccccccccccccccccccccccccccccccccccccccccccccccccccccccccccccccccccccccccccccccccccccccccccccccccccccccccccccccccccccccccccccccccccccccccccccccccccccccccccccccccccccccccccccccccccccccccccccccccccccccccccccccccccccccccccccccccccccccccccccccccccccccccccccccccccccccccccccccccccccccccccccccccccccccccccccccccccccccccccccccccccccccccccccccc"/>
</svg>
