<?xml version="1.0" standalone="no"?>
<!DOCTYPE svg PUBLIC "-//W3C//DTD SVG 20010904//EN" "http://www.w3.org/TR/2001/REC-SVG-20010904/DTD/svg10.dtd">
<!-- Created using Krita: https://krita.org -->
<svg xmlns="http://www.w3.org/2000/svg" 
    xmlns:xlink="http://www.w3.org/1999/xlink"
    xmlns:krita="http://krita.org/namespaces/svg/krita"
    xmlns:sodipodi="http://sodipodi.sourceforge.net/DTD/sodipodi-0.dtd"
    width="368.64pt"
    height="368.64pt"
    viewBox="0 0 368.64 368.64">
<defs/>
<path id="shape0" transform="matrix(-0.707106739220466 -0.707106739220466 0.707106739220466 -0.707106739220466 330.755203017931 85.7647724805024)" fill="#ffffff" fill-rule="evenodd" stroke="#ffffff" stroke-width="14.4" stroke-linecap="round" stroke-linejoin="round" d="M33.8563 44.533L67.7125 0L0 0Z" sodipodi:nodetypes="cccc"/><path id="shape01" transform="matrix(0.999999960263572 0 0 0.999999960263572 230.399990844727 46.0799981689454)" fill="none" stroke="#ffffff" stroke-width="21.6" stroke-linecap="round" stroke-linejoin="round" d="M0 92.16L92.16 0" sodipodi:nodetypes="cc"/><path id="shape01" transform="matrix(-0.999999945647874 0 0 0.999999945647874 138.239994506836 46.0799981689454)" fill="none" stroke="#ffffff" stroke-width="21.6" stroke-linecap="round" stroke-linejoin="round" d="M0 92.16L92.16 0" sodipodi:nodetypes="cc"/><path id="shape02" transform="matrix(0.70710672535228 -0.70710672535228 -0.70710672535228 -0.70710672535228 37.3641663073473 85.7647721392101)" fill="#ffffff" fill-rule="evenodd" stroke="#ffffff" stroke-width="14.4" stroke-linecap="round" stroke-linejoin="round" d="M33.8563 44.533L67.7125 0L0 0Z" sodipodi:nodetypes="cccc"/><path id="shape03" transform="matrix(-0.70710672535228 0.70710672535228 0.70710672535228 0.70710672535228 330.755177352769 282.875213212353)" fill="#ffffff" fill-rule="evenodd" stroke="#ffffff" stroke-width="14.4" stroke-linecap="round" stroke-linejoin="round" d="M33.8563 44.533L67.7125 0L0 0Z" sodipodi:nodetypes="cccc"/><path id="shape04" transform="matrix(0.999999940650996 0 0 -0.999999940650996 230.399991748475 322.559986278871)" fill="none" stroke="#ffffff" stroke-width="21.6" stroke-linecap="round" stroke-linejoin="round" d="M0 92.16L92.16 0" sodipodi:nodetypes="cc"/><path id="shape011" transform="matrix(-0.999999926035299 0 0 -0.999999926035299 138.239992929597 322.559985605379)" fill="none" stroke="#ffffff" stroke-width="21.6" stroke-linecap="round" stroke-linejoin="round" d="M0 92.16L92.16 0" sodipodi:nodetypes="cc"/><path id="shape021" transform="matrix(0.707106711484096 0.707106711484096 -0.707106711484096 0.707106711484096 37.8848081595226 282.875213990674)" fill="#ffffff" fill-rule="evenodd" stroke="#ffffff" stroke-width="14.4" stroke-linecap="round" stroke-linejoin="round" d="M33.8563 44.533L67.7125 0L0 0Z" sodipodi:nodetypes="cccc"/>
</svg>
