<?xml version="1.0" encoding="UTF-8" standalone="no"?>
<!-- Created using Krita: https://krita.org -->

<svg
   width="737.28pt"
   height="737.28pt"
   viewBox="0 0 737.28 737.28"
   version="1.1"
   id="svg6"
   sodipodi:docname="JogarNonavemente.svg"
   inkscape:version="1.2.2 (732a01da63, 2022-12-09)"
   xmlns:inkscape="http://www.inkscape.org/namespaces/inkscape"
   xmlns:sodipodi="http://sodipodi.sourceforge.net/DTD/sodipodi-0.dtd"
   xmlns="http://www.w3.org/2000/svg"
   xmlns:svg="http://www.w3.org/2000/svg">
  <sodipodi:namedview
     id="namedview8"
     pagecolor="#ffffff"
     bordercolor="#111111"
     borderopacity="1"
     inkscape:showpageshadow="0"
     inkscape:pageopacity="0"
     inkscape:pagecheckerboard="1"
     inkscape:deskcolor="#d1d1d1"
     inkscape:document-units="pt"
     showgrid="false"
     inkscape:zoom="0.43334959"
     inkscape:cx="477.67438"
     inkscape:cy="439.59889"
     inkscape:window-width="1920"
     inkscape:window-height="1009"
     inkscape:window-x="-8"
     inkscape:window-y="-8"
     inkscape:window-maximized="1"
     inkscape:current-layer="svg6" />
  <defs
     id="defs2" />
  <path
     id="path298"
     style="color:#000000;fill:#ffffff;fill-rule:evenodd;stroke-width:14.4;stroke-linecap:round;stroke-linejoin:round;-inkscape-stroke:none"
     d="M 166.53033 -102.94066 C 164.58069 -102.97004 162.62513 -102.96138 160.66348 -102.91403 C 97.889326 -101.39878 42.725058 -60.619491 22.868008 -1.0506022 A 10.8 10.8 0 0 0 29.698524 12.611132 A 10.8 10.8 0 0 0 43.360258 5.7813161 C 60.361534 -45.220574 107.43851 -80.022697 161.18492 -81.320035 C 212.30838 -82.554181 258.84989 -53.203719 280.00409 -7.1991885 L 257.77933 -7.1991885 A 7.2007198 7.2007198 0 0 0 252.06807 4.3845154 L 287.43734 50.464921 A 7.2007198 7.2007198 0 0 0 298.86125 50.464921 L 334.23051 4.3845154 A 7.1999998 7.1999998 0 0 0 335.6974 0.052540936 A 7.1999998 7.1999998 0 0 0 335.71842 -2.3064085e-05 A 7.1999998 7.1999998 0 0 0 335.55302 -1.0393886 A 7.1999998 7.1999998 0 0 0 335.38061 -2.1306172 A 7.1999998 7.1999998 0 0 0 334.90263 -3.13494 A 7.1999998 7.1999998 0 0 0 334.3868 -4.1483739 A 7.1999998 7.1999998 0 0 0 333.62077 -4.9550561 A 7.1999998 7.1999998 0 0 0 332.90239 -5.7112769 A 7.1999998 7.1999998 0 0 0 332.84983 -5.7245931 A 7.1999998 7.1999998 0 0 0 328.51786 -7.1991885 L 303.41609 -7.1991885 A 10.8 10.8 0 0 0 303.21214 -7.8187428 C 281.21387 -64.530749 226.96902 -102.03001 166.53033 -102.94066 z M 35.369129 38.880516 A 7.2007198 7.2007198 0 0 0 29.657875 41.695143 L -5.7106886 87.775549 A 7.1999998 7.1999998 0 0 0 -6.3127216 90.015476 A 7.1999998 7.1999998 0 0 0 -7.1993011 92.160088 A 7.1999998 7.1999998 0 0 0 -7.0100707 92.619147 A 7.1999998 7.1999998 0 0 0 -5.9784146 95.109278 A 7.1999998 7.1999998 0 0 0 -4.6327762 97.441718 A 7.1999998 7.1999998 0 0 0 -4.3846741 97.871341 A 7.1999998 7.1999998 0 0 0 -2.1447469 98.472674 A 7.1999998 7.1999998 0 0 0 -0.00013565411 99.359253 L 22.54982 99.359253 A 10.8 10.8 0 0 0 23.172879 103.56648 C 45.88104 162.10798 102.94748 200.17669 165.72154 198.66176 C 228.49444 197.14682 283.66018 156.36851 303.51702 96.799036 A 10.8 10.8 0 0 0 296.6865 83.136601 A 10.8 10.8 0 0 0 283.02476 89.966417 C 266.02368 140.96873 218.94497 175.77141 165.20011 177.06847 C 112.75674 178.33409 65.131505 147.42267 44.789999 99.359253 L 70.738393 99.359253 A 7.2007198 7.2007198 0 0 0 76.448946 87.775549 L 41.080382 41.695143 A 7.2007198 7.2007198 0 0 0 35.369129 38.880516 z "
     transform="matrix(2.0900861,0,0,2.0900861,25.324502,268.57915)" />
</svg>
