<svg xmlns="http://www.w3.org/2000/svg" width="737.28pt" height="737.28pt" viewBox="0 0 737.28 737.28">
  <defs/>
  <path id="shape0" fill="#ffffff" d="M203.903,21.973 C133.851,21.973 76.92,93.136 76.92,180.702 C76.92,268.267 133.851,339.431 203.903,339.431 L533.377,339.431 C603.43,339.431 660.36,268.267 660.36,180.702 C660.36,93.136 603.43,21.973 533.377,21.973 L203.903,21.973 Z M203.903,64.869 L533.377,64.869 C585.01,64.869 626.039,116.161 626.039,180.702 C626.039,245.243 585.01,296.534 533.377,296.534 L203.903,296.534 C152.271,296.534 111.237,245.243 111.237,180.702 C111.237,116.161 152.271,64.869 203.903,64.869 Z M503.659,78.313 C500.797,78.313 497.965,78.436 495.163,78.665 C495.161,78.665 495.159,78.665 495.157,78.665 C495.154,78.666 495.152,78.666 495.149,78.667 C471.648,80.59 450.382,90.402 434.005,105.456 C433.946,105.511 433.887,105.566 433.828,105.621 C431.813,107.482 429.874,109.422 428.013,111.437 C427.953,111.5 427.893,111.564 427.834,111.628 C425.941,113.688 424.13,115.825 422.408,118.034 C408.805,135.486 400.698,157.433 400.698,181.274 C400.698,205.116 408.805,227.061 422.408,244.513 C424.13,246.723 425.941,248.859 427.834,250.919 C427.893,250.983 427.953,251.047 428.013,251.111 C429.876,253.128 431.818,255.071 433.835,256.934 C433.891,256.985 433.946,257.036 434.001,257.087 C450.378,272.143 471.646,281.958 495.149,283.881 C495.152,283.881 495.154,283.882 495.157,283.882 C495.159,283.882 495.161,283.882 495.163,283.882 C497.965,284.111 500.797,284.234 503.659,284.234 C506.52,284.234 509.353,284.111 512.155,283.882 C512.157,283.882 512.159,283.882 512.161,283.882 C512.163,283.882 512.166,283.881 512.168,283.881 C535.665,281.958 556.926,272.15 573.302,257.102 C573.369,257.039 573.437,256.976 573.504,256.913 C575.513,255.057 577.447,253.121 579.303,251.112 C579.363,251.048 579.423,250.983 579.483,250.919 C581.377,248.859 583.187,246.723 584.909,244.513 C596.877,229.159 604.586,210.326 606.267,189.784 C606.267,189.779 606.268,189.775 606.268,189.771 C606.497,186.968 606.62,184.136 606.62,181.274 C606.62,180.319 606.604,179.367 606.579,178.418 C606.572,178.242 606.565,178.066 606.558,177.891 C606.533,177.105 606.5,176.321 606.457,175.54 C606.447,175.375 606.437,175.211 606.426,175.047 C606.376,174.209 606.318,173.373 606.248,172.54 C606.242,172.475 606.236,172.41 606.23,172.345 C606.149,171.405 606.055,170.469 605.949,169.537 C603.894,151.437 597.149,134.762 586.956,120.756 C586.405,119.999 585.845,119.25 585.274,118.509 C585.227,118.448 585.18,118.388 585.133,118.327 C584.567,117.596 583.994,116.871 583.409,116.155 C583.394,116.136 583.38,116.117 583.365,116.099 C583.361,116.094 583.356,116.088 583.352,116.083 C582.735,115.33 582.109,114.584 581.471,113.849 C580.878,113.165 580.274,112.49 579.664,111.822 C579.471,111.613 579.277,111.405 579.082,111.198 C578.651,110.734 578.218,110.272 577.778,109.816 C577.547,109.577 577.314,109.339 577.08,109.102 C576.674,108.689 576.266,108.281 575.854,107.875 C575.598,107.623 575.34,107.372 575.082,107.123 C574.634,106.691 574.181,106.264 573.725,105.841 C573.531,105.658 573.335,105.476 573.139,105.294 C572.462,104.675 571.778,104.063 571.084,103.462 C570.347,102.823 569.6,102.195 568.844,101.577 C568.841,101.574 568.837,101.571 568.834,101.568 C568.824,101.56 568.814,101.551 568.803,101.543 C568.072,100.945 567.33,100.359 566.583,99.781 C566.538,99.746 566.493,99.711 566.448,99.677 C565.7,99.101 564.944,98.536 564.18,97.98 C564.179,97.98 564.178,97.978 564.177,97.978 C564.176,97.977 564.175,97.977 564.174,97.976 C549.446,87.258 531.769,80.351 512.587,78.703 C512.522,78.697 512.458,78.691 512.394,78.686 C511.52,78.612 510.644,78.549 509.764,78.498 C509.66,78.492 509.556,78.485 509.452,78.479 C508.625,78.433 507.794,78.398 506.962,78.372 C506.814,78.366 506.666,78.36 506.518,78.354 C505.568,78.329 504.615,78.313 503.659,78.313 Z M203.902,397.85 C133.849,397.85 76.919,469.014 76.919,556.579 C76.919,644.145 133.849,715.307 203.902,715.307 L533.376,715.307 C603.428,715.307 660.359,644.145 660.359,556.579 C660.359,469.014 603.428,397.85 533.376,397.85 L203.902,397.85 Z M203.902,440.745 L533.376,440.745 C585.009,440.745 626.044,492.038 626.044,556.579 C626.044,621.12 585.009,672.412 533.376,672.412 L203.902,672.412 C152.269,672.412 111.24,621.12 111.24,556.579 C111.24,492.038 152.269,440.745 203.902,440.745 Z M233.621,453.045 C230.759,453.045 227.927,453.168 225.125,453.397 C225.123,453.397 225.121,453.397 225.119,453.397 C225.116,453.397 225.114,453.398 225.111,453.398 C204.569,455.079 185.736,462.788 170.382,474.756 C168.174,476.477 166.039,478.286 163.98,480.177 C163.912,480.241 163.844,480.304 163.775,480.368 C161.766,482.224 159.831,484.159 157.975,486.168 C157.915,486.232 157.855,486.296 157.796,486.36 C155.903,488.42 154.093,490.556 152.372,492.765 C152.371,492.766 152.37,492.767 152.369,492.768 C140.401,508.123 132.693,526.958 131.013,547.501 C131.013,547.502 131.013,547.503 131.013,547.504 C130.783,550.309 130.661,553.143 130.661,556.006 C130.661,558.87 130.783,561.704 131.013,564.508 C132.692,585.053 140.401,603.889 152.37,619.245 C154.096,621.459 155.91,623.6 157.808,625.664 C157.859,625.719 157.91,625.774 157.961,625.83 C159.829,627.852 161.775,629.798 163.797,631.666 C163.852,631.717 163.908,631.768 163.963,631.819 C166.027,633.717 168.168,635.531 170.382,637.257 C185.738,649.226 204.574,656.935 225.119,658.614 C227.923,658.844 230.757,658.966 233.621,658.966 C236.484,658.966 239.318,658.843 242.123,658.614 L242.124,658.614 C242.125,658.614 242.125,658.614 242.125,658.614 C262.669,656.934 281.504,649.226 296.859,637.258 C296.86,637.257 296.861,637.256 296.862,637.255 C299.071,635.534 301.207,633.724 303.267,631.831 C303.331,631.772 303.395,631.712 303.458,631.652 C305.468,629.796 307.403,627.861 309.259,625.852 C309.323,625.783 309.386,625.715 309.45,625.646 C311.341,623.588 313.15,621.453 314.871,619.245 C326.839,603.891 334.548,585.058 336.229,564.516 C336.229,564.511 336.23,564.507 336.23,564.502 C336.459,561.7 336.582,558.868 336.582,556.006 C336.582,555.051 336.566,554.1 336.541,553.151 C336.534,552.976 336.527,552.801 336.52,552.625 C336.495,551.839 336.462,551.054 336.419,550.271 C336.409,550.107 336.399,549.943 336.388,549.779 C336.338,548.941 336.279,548.104 336.209,547.271 C336.204,547.207 336.198,547.143 336.192,547.078 C334.544,527.896 327.637,510.219 316.919,495.491 C316.918,495.49 316.918,495.489 316.917,495.488 C316.917,495.487 316.916,495.486 316.915,495.485 C316.371,494.738 315.818,493.999 315.255,493.267 C315.198,493.193 315.142,493.12 315.085,493.046 C314.522,492.319 313.953,491.598 313.371,490.887 C313.356,490.868 313.342,490.849 313.327,490.831 C313.323,490.826 313.318,490.82 313.314,490.815 C312.697,490.062 312.071,489.316 311.433,488.581 C310.84,487.897 310.236,487.222 309.626,486.554 C309.432,486.345 309.239,486.137 309.044,485.93 C308.613,485.466 308.18,485.004 307.74,484.548 C307.508,484.309 307.276,484.071 307.042,483.833 C306.629,483.414 306.213,482.998 305.793,482.585 C305.556,482.351 305.318,482.118 305.079,481.887 C304.623,481.447 304.161,481.014 303.697,480.583 C303.49,480.388 303.282,480.194 303.073,480.001 C302.405,479.391 301.73,478.787 301.046,478.194 C300.311,477.556 299.565,476.93 298.812,476.313 C298.807,476.309 298.801,476.304 298.796,476.3 C298.777,476.285 298.759,476.271 298.74,476.256 C298.029,475.674 297.308,475.105 296.581,474.542 C296.507,474.485 296.434,474.429 296.36,474.372 C295.628,473.809 294.889,473.256 294.142,472.712 C294.141,472.712 294.14,472.71 294.139,472.709 C294.138,472.709 294.137,472.708 294.136,472.708 C279.408,461.99 261.731,455.083 242.549,453.435 C242.484,453.429 242.42,453.423 242.355,453.417 C241.522,453.347 240.686,453.289 239.848,453.239 C239.684,453.228 239.52,453.218 239.355,453.208 C238.573,453.165 237.788,453.132 237.001,453.107 C236.826,453.1 236.651,453.093 236.476,453.086 C235.527,453.061 234.576,453.045 233.621,453.045 Z"/>
</svg>

