<svg xmlns="http://www.w3.org/2000/svg" width="737.28pt" height="737.28pt" viewBox="0 0 737.28 737.28">
  <defs/>
  <path id="shape0" fill="#ffffff" d="M702.952,368.64 Q702.952,507.117 605.035,605.034 Q507.117,702.952 368.64,702.952 Q230.163,702.952 132.245,605.034 Q34.328,507.117 34.328,368.64 Q34.328,230.163 132.245,132.245 Q230.163,34.328 368.64,34.328 Q507.117,34.328 605.034,132.245 Q702.952,230.163 702.952,368.64 Z M676.207,368.64 Q676.207,241.241 586.123,151.157 Q496.039,61.073 368.64,61.072 Q241.241,61.072 151.157,151.157 Q61.073,241.241 61.072,368.64 Q61.072,496.039 151.157,586.123 Q241.241,676.207 368.64,676.207 Q496.039,676.207 586.123,586.123 Q676.207,496.039 676.207,368.64 Z"/>
  <path id="shape1" fill="#ffffff" d="M680.984,355.343 L694.357,355.343 L694.357,382.088 L42.924,382.088 L42.924,355.343 L680.984,355.343 Z M632.747,171.949 L632.747,198.694 L105.966,198.694 L105.966,171.949 L632.747,171.949 Z M617.942,538.587 L631.314,538.587 L631.314,565.332 L108.832,565.332 L108.832,538.587 L617.942,538.587 Z"/>
  <path id="shape2" fill="#ffffff" d="M355.267,695.694 Q292.6,687.171 248.927,597.276 Q202.993,502.728 202.993,369.853 Q202.993,236.979 248.927,142.431 Q292.6,52.536 355.267,44.013 L355.267,37.002 L382.012,37.002 L382.012,44.023 Q444.633,52.588 488.28,142.431 Q531.885,232.186 534.096,356.481 L534.214,356.481 L534.214,369.853 L534.214,370.062 L534.214,383.226 L534.096,383.226 Q531.885,507.52 488.28,597.276 Q444.633,687.119 382.012,695.684 L382.012,698.941 L355.267,698.941 L355.267,695.694 Z M355.267,71.158 Q308.845,80.301 272.983,154.118 Q229.738,243.132 229.738,369.853 Q229.738,496.575 272.983,585.589 Q308.845,659.406 355.267,668.549 L355.267,71.158 Z M507.469,369.853 Q507.469,243.132 464.224,154.118 Q428.39,80.359 382.012,71.172 L382.012,668.534 Q428.39,659.348 464.224,585.589 Q507.434,496.647 507.469,370.058 Z"/>
</svg>

