<svg xmlns="http://www.w3.org/2000/svg" width="737.28pt" height="737.28pt" version="1.1" viewBox="0 0 737.28 737.28">
  <defs/>
  <path fill="#fff" d="M414.72,635.04 C414.72,660.489 394.089,681.12 368.64,681.12 C343.191,681.12 322.56,660.489 322.56,635.04 C322.56,609.591 343.191,588.96 368.64,588.96 C394.089,588.96 414.72,609.591 414.72,635.04 Z"/>
  <path fill="#fff" d="M367.14,25.778 C318.981,26.614 270.651,41.064 232.32,71.391 C193.987,101.718 167.131,150.211 167.765,207.791 C168.006,229.66 185.929,247.193 207.798,246.953 C229.667,246.712 247.2,228.789 246.96,206.92 C246.583,172.653 259.524,150.853 281.458,133.5 C303.392,116.147 335.802,105.529 368.517,104.961 C401.232,104.393 433.237,113.836 454.966,130.623 C476.646,147.372 490.221,169.549 490.31,207.143 C489.703,243.985 482.406,257.405 474.103,266.848 C465.768,276.326 451.215,283.818 429.587,295.885 C407.959,307.952 379.989,326.191 360.181,359.151 C340.373,392.11 329.455,436.633 329.042,499.771 C328.898,521.641 346.512,539.487 368.382,539.63 C390.253,539.773 408.099,522.159 408.241,500.288 C408.596,446.02 417.896,416.865 428.065,399.948 C438.234,383.028 450.001,375.188 468.176,365.048 C486.351,354.908 511.667,344.062 533.576,319.146 C555.486,294.23 568.774,257.233 569.515,207.946 C569.519,207.738 569.521,207.529 569.521,207.321 C569.476,147.603 542.465,98.131 503.384,67.941 C464.304,37.75 415.299,24.931 367.144,25.767 Z"/>
</svg>
