<svg xmlns="http://www.w3.org/2000/svg" width="737.28pt" height="737.28pt" viewBox="0 0 737.28 737.28" version="1.1" id="svg2306">
  <defs/>
  <path id="path2453" fill="#ffffff" d="M368.64,31.68 C258.799,31.68 169.92,120.559 169.92,230.4 L169.92,506.881 C169.92,616.722 258.799,705.6 368.64,705.6 C478.482,705.6 567.359,616.722 567.359,506.881 L567.359,230.4 C567.359,120.559 478.482,31.68 368.64,31.68 Z M368.64,60.48 C463.025,60.48 538.56,136.016 538.56,230.4 L538.56,506.881 C538.56,601.265 463.025,676.801 368.64,676.801 C274.256,676.801 198.72,601.265 198.72,506.881 L198.72,230.4 C198.72,136.016 274.256,60.48 368.64,60.48 Z"/>
  <path id="path2456" fill="#ffffff" d="M354.24,35.28 L354.24,49.68 L354.24,318.6 L354.24,333 L383.04,333 L383.04,318.6 L383.04,49.68 L383.04,35.28 Z"/>
  <path id="path2459" fill="#ffffff" d="M169.92,308.16 L169.92,336.96 L184.32,336.96 L552.961,336.96 L567.359,336.96 L567.359,308.16 L552.961,308.16 L184.32,308.16 Z"/>
  <path id="path2462" fill="#ffffff" d="M368.64,138.24 C394.168,138.24 414.72,158.792 414.72,184.32 L414.72,230.4 C414.72,255.928 394.168,276.48 368.64,276.48 C343.112,276.48 322.56,255.928 322.56,230.4 L322.56,184.32 C322.56,158.792 343.112,138.24 368.64,138.24 Z"/>
</svg>
