<?xml version="1.0" standalone="no"?>
<!DOCTYPE svg PUBLIC "-//W3C//DTD SVG 20010904//EN" "http://www.w3.org/TR/2001/REC-SVG-20010904/DTD/svg10.dtd">
<!-- Created using Krita: https://krita.org -->
<svg xmlns="http://www.w3.org/2000/svg" 
    xmlns:xlink="http://www.w3.org/1999/xlink"
    xmlns:krita="http://krita.org/namespaces/svg/krita"
    xmlns:sodipodi="http://sodipodi.sourceforge.net/DTD/sodipodi-0.dtd"
    width="92.16pt"
    height="92.16pt"
    viewBox="0 0 92.16 92.16">
<defs/>
<path id="shape0" transform="matrix(0.874999455047882 0 0 -0.999999127425939 24.3442296954483 82.5307332438492)" fill="#ffffff" stroke-opacity="0" stroke="#000000" stroke-width="0" stroke-linecap="square" stroke-linejoin="bevel" d="M24.8404 72.9009C11.143 72.9009 5.96174e-07 61.7575 5.96174e-07 48.0601C-5.11128e-05 47.744 0.0831784 47.4333 0.24128 47.1596C0.399382 46.8858 0.626845 46.6585 0.900689 46.5005C1.17453 46.3426 1.48521 46.2596 1.80134 46.2598C2.27854 46.2599 2.73665 46.4497 3.07402 46.7872C3.41139 47.1247 3.60108 47.5829 3.60101 48.0601C3.60101 59.8119 13.0886 69.3003 24.8404 69.3003C36.5922 69.3003 46.0798 59.8119 46.0798 48.0601C46.0834 48.0415 46.0873 48.0229 46.0915 48.0044L46.0815 48.0044C46.0675 47.2247 45.6113 46.1831 44.4944 44.918C43.3776 43.6529 41.6647 42.2375 39.5608 40.7505C35.353 37.7765 29.6037 34.4979 23.8108 30.8277C18.018 27.1574 12.1681 23.0927 7.67746 18.3648C3.18679 13.6369 0.0064268 8.13826 5.96174e-07 1.80322C-1.98725e-07 1.80225 -1.98725e-07 1.80127 5.96174e-07 1.80029C-5.11255e-05 1.48417 0.0831784 1.17354 0.24128 0.899783C0.399382 0.626031 0.626845 0.3987 0.900689 0.240757C1.17453 0.0828143 1.48521 -0.00023481 1.80134 4.98797e-07L47.8812 4.98797e-07C48.1973 -0.000234845 48.508 0.0828142 48.7818 0.240757C49.0556 0.398699 49.2831 0.626031 49.4412 0.899783C49.5993 1.17354 49.6825 1.48417 49.6825 1.80029C49.6828 2.11659 49.5997 2.42744 49.4417 2.70143C49.2837 2.97541 49.0562 3.20295 48.7822 3.36105C48.5083 3.51915 48.1974 3.60229 47.8812 3.60205L3.7115 3.60205C4.23723 8.02395 6.65508 12.062 10.2874 15.8862C14.4076 20.2241 20.0385 24.1757 25.7377 27.7866C31.4369 31.3975 37.1911 34.6673 41.6384 37.8106C43.8621 39.3822 45.7638 40.9157 47.1931 42.5347C48.6224 44.1537 49.6431 45.9297 49.6791 47.937L49.6741 47.937C49.6783 47.9779 49.6811 48.019 49.6825 48.0601C49.6825 61.7575 38.5378 72.9009 24.8404 72.9009Z" sodipodi:nodetypes="cccccccccccccccccccccccccccccccccccc"/>
</svg>
