<?xml version="1.0" encoding="UTF-8" standalone="no"?>
<!-- Created using Krita: https://krita.org -->

<svg
   width="92.16pt"
   height="92.16pt"
   viewBox="0 0 92.16 92.16"
   version="1.1"
   id="svg36"
   sodipodi:docname="u0039.svg"
   inkscape:version="1.2.1 (9c6d41e410, 2022-07-14)"
   xmlns:inkscape="http://www.inkscape.org/namespaces/inkscape"
   xmlns:sodipodi="http://sodipodi.sourceforge.net/DTD/sodipodi-0.dtd"
   xmlns="http://www.w3.org/2000/svg"
   xmlns:svg="http://www.w3.org/2000/svg">
  <sodipodi:namedview
     id="namedview38"
     pagecolor="#ffffff"
     bordercolor="#111111"
     borderopacity="1"
     inkscape:showpageshadow="0"
     inkscape:pageopacity="0"
     inkscape:pagecheckerboard="1"
     inkscape:deskcolor="#d1d1d1"
     inkscape:document-units="pt"
     showgrid="false"
     inkscape:zoom="6.746419"
     inkscape:cx="61.365889"
     inkscape:cy="61.514116"
     inkscape:window-width="1920"
     inkscape:window-height="1009"
     inkscape:window-x="-8"
     inkscape:window-y="-8"
     inkscape:window-maximized="1"
     inkscape:current-layer="svg36" />
  <defs
     id="defs32" />
  <path
     id="shape0"
     style="color:#000000;fill:#ffffff;stroke-linecap:square;stroke-linejoin:bevel;-inkscape-stroke:none"
     d="M 23.4087 47.880764 C 37.294186 47.880764 48.617241 36.751415 48.617241 23.038457 C 48.617241 9.3255013 37.294186 -1.8009194 23.4087 -1.8009194 C 16.786157 -1.8009194 10.749995 0.73448224 6.2435564 4.8699848 C 10.667345 -4.9609807 17.770234 -14.942828 24.697957 -22.053866 A 1.8 1.8 0 0 0 24.66564 -24.599767 A 1.8 1.8 0 0 0 23.384888 -25.110998 A 1.8 1.8 0 0 0 22.117742 -24.566076 C 10.230953 -12.364748 -2.2421549 7.1526563 -1.7998407 22.995977 C -1.7998652 23.010227 -1.8015416 23.024202 -1.8015416 23.038457 C -1.8015416 23.057602 -1.7998849 23.076451 -1.7998407 23.095586 C -1.7682837 36.782176 9.5426004 47.880764 23.4087 47.880764 z M 23.4087 44.27871 C 11.438187 44.27871 1.8008935 34.774737 1.8008934 23.038457 C 1.8008935 11.302179 11.438187 1.8011345 23.4087 1.8011345 C 35.379213 1.8011346 45.014806 11.302179 45.014806 23.038457 C 45.014806 34.774737 35.379213 44.27871 23.4087 44.27871 z "
     transform="matrix(-0.86123387402707 0 0 -0.999999146077862 66.239955253617 57.5999610901018)" />
  <path
     id="path280"
     style="color:#000000;fill:#ffffff;stroke-linecap:square;stroke-linejoin:bevel;-inkscape-stroke:none"
     d="M 23.4087 47.880764 C 37.294186 47.880764 48.617241 36.751415 48.617241 23.038457 C 48.617241 9.3255013 37.294186 -1.8009194 23.4087 -1.8009194 C 16.786157 -1.8009194 10.749995 0.73448224 6.2435564 4.8699848 C 10.667345 -4.9609807 17.770234 -14.942828 24.697957 -22.053866 A 1.8 1.8 0 0 0 24.66564 -24.599767 A 1.8 1.8 0 0 0 23.384888 -25.110998 A 1.8 1.8 0 0 0 22.117742 -24.566076 C 10.230953 -12.364748 -2.2421549 7.1526563 -1.7998407 22.995977 C -1.7998652 23.010227 -1.8015416 23.024202 -1.8015416 23.038457 C -1.8015416 23.057602 -1.7998849 23.076451 -1.7998407 23.095586 C -1.7682837 36.782176 9.5426004 47.880764 23.4087 47.880764 z M 23.4087 44.27871 C 11.438187 44.27871 1.8008935 34.774737 1.8008934 23.038457 C 1.8008935 11.302179 11.438187 1.8011345 23.4087 1.8011345 C 35.379213 1.8011346 45.014806 11.302179 45.014806 23.038457 C 45.014806 34.774737 35.379213 44.27871 23.4087 44.27871 z "
     transform="matrix(-0.86123387402707 0 0 -0.999999146077862 66.239955253617 57.5999610901018)" />
</svg>
