<?xml version="1.0" standalone="no"?>
<!DOCTYPE svg PUBLIC "-//W3C//DTD SVG 20010904//EN" "http://www.w3.org/TR/2001/REC-SVG-20010904/DTD/svg10.dtd">
<!-- Created using Krita: https://krita.org -->
<svg xmlns="http://www.w3.org/2000/svg" 
    xmlns:xlink="http://www.w3.org/1999/xlink"
    xmlns:krita="http://krita.org/namespaces/svg/krita"
    xmlns:sodipodi="http://sodipodi.sourceforge.net/DTD/sodipodi-0.dtd"
    width="92.16pt"
    height="92.16pt"
    viewBox="0 0 92.16 92.16">
<defs/>
<path id="shape0" transform="matrix(0.999999591811758 0 0 0.999999591811758 27.688041619003 9.49116016709764)" fill="#ffffff" stroke-opacity="0" stroke="#000000" stroke-width="0" stroke-linecap="square" stroke-linejoin="bevel" d="M18.3315 0.00102673L17.1303 0.0420423C17.0902 0.0431444 17.0501 0.0455872 17.0102 0.0493665L15.8295 0.168019C15.7898 0.172073 15.7502 0.177447 15.7109 0.184132L14.5551 0.378956C14.5158 0.38547 14.4767 0.393287 14.4379 0.402394L13.31 0.67046C13.2716 0.679459 13.2335 0.689719 13.1957 0.701222L12.0956 1.04107C12.0581 1.05303 12.021 1.06622 11.9843 1.08062L10.9179 1.48931C10.8818 1.50281 10.8461 1.51746 10.811 1.53325L9.77679 2.00786C9.74208 2.02386 9.70788 2.04096 9.67425 2.05913L8.67962 2.59673C8.6458 2.61519 8.61258 2.63473 8.58001 2.65532L7.62494 3.25298C7.59252 3.27344 7.56076 3.29494 7.52972 3.31743L6.61712 3.97075C6.5866 3.99324 6.5568 4.01669 6.52777 4.04107L5.66058 4.75298C5.63101 4.77648 5.60219 4.80091 5.57415 4.82622L4.75384 5.59087C4.72612 5.61735 4.69925 5.64471 4.67328 5.6729L3.9057 6.48443C3.87939 6.51241 3.85399 6.54124 3.82953 6.57085L3.11322 7.43218C3.08879 7.46218 3.06534 7.49296 3.0429 7.52446L2.38519 8.42827C2.36171 8.45927 2.33923 8.49103 2.31781 8.52349L1.71869 9.47271C1.6976 9.50525 1.67757 9.53847 1.65863 9.57232L1.11956 10.5611C1.10084 10.5957 1.08325 10.6308 1.06683 10.6666L0.589291 11.6919C0.572455 11.728 0.556821 11.7647 0.542416 11.8018L0.13226 12.8594C0.118293 12.8971 0.105591 12.9352 0.0941735 12.9737L0.0824548 13.0103C-0.060303 13.4655 -0.016438 13.9592 0.204324 14.382C0.425087 14.8049 0.805129 15.1231 1.26019 15.2662C1.71553 15.4089 2.20944 15.3648 2.63232 15.1437C3.05521 14.9227 3.37331 14.5423 3.51605 14.087L3.51019 14.106L3.87933 13.1568L4.30413 12.2369L4.789 11.3521L5.32806 10.501L5.91986 9.68804L6.56292 8.9146L7.2514 8.18364L7.98675 7.4981L8.76605 6.86235L9.58343 6.27349L10.4389 5.73735L11.3325 5.25396L12.2582 4.83062L13.2148 4.46294L14.2006 4.15825L15.2128 3.91802L16.2514 3.74224L17.3105 3.63677L18.393 3.60015L19.4726 3.63677L20.5331 3.74224L21.5702 3.91802L22.5825 4.15825L23.5683 4.46294L24.5248 4.83062L25.4506 5.25396L26.3442 5.73735L27.2011 6.27349L28.02 6.86235L28.7963 7.4981L29.5331 8.18364L30.2231 8.9146L30.8632 9.68804L31.455 10.501L31.9941 11.3521L32.4789 12.2369L32.9067 13.1568L33.2729 14.106L33.5805 15.0831L33.8222 16.0865L33.998 17.1163L34.1049 18.1666L34.1401 19.2388L34.1049 20.3111L33.998 21.3614L33.8222 22.3912L33.5805 23.3946L33.2729 24.3731L32.9067 25.3223L32.4789 26.2408L31.9941 27.127L31.455 27.9766L30.8632 28.7896L30.2231 29.563L29.5331 30.294L28.7963 30.9795L28.02 31.6182L27.2011 32.2056L26.3442 32.7403L25.4506 33.2237L24.5248 33.647L23.5683 34.0147L22.5825 34.3194L21.5702 34.5596L20.5932 34.7251C20.1742 34.7963 19.7937 35.0135 19.5194 35.3381C19.2452 35.6627 19.0945 36.0742 19.0943 36.4992C19.0942 36.9242 19.2445 37.3358 19.5185 37.6606C19.7925 37.9854 20.1728 38.203 20.5917 38.2745L21.6699 38.4561L22.6733 38.6963L23.6503 38.9981L24.5981 39.3614L25.5151 39.7862L26.3998 40.2637L27.2494 40.7969L28.0624 41.3829L28.8344 42.0186L29.5624 42.6998L30.2465 43.4263L30.8823 44.1939L31.4682 45.0025L32.0043 45.8506L32.4848 46.731L32.9081 47.6451L33.2729 48.5899L33.5761 49.5626L33.8163 50.563L33.9907 51.587L34.0976 52.6314L34.1327 53.6993L34.0976 54.7657L33.9907 55.8116L33.8163 56.837L33.5761 57.8345L33.2729 58.8086L32.9081 59.752L32.4848 60.6661L32.0043 61.5494L31.4682 62.3946L30.8823 63.2032L30.2465 63.9737L29.5624 64.6973L28.8344 65.3814L28.0624 66.0142L27.2494 66.6001L26.3998 67.1334L25.5151 67.6124L24.5981 68.0357L23.6503 68.399L22.6733 68.7022L21.6699 68.9424L20.6401 69.1153L19.5898 69.2208L18.519 69.2588L17.4467 69.2208L16.3964 69.1153L15.3696 68.9424L14.3647 68.7022L13.3891 68.399L12.4399 68.0357L11.5214 67.6124L10.6381 67.1334L9.78851 66.6001L8.97699 66.0142L8.20501 65.3814L7.47699 64.6973L6.7929 63.9737L6.1557 63.2032L5.56976 62.3946L5.03509 61.5494L4.55462 60.6661L4.13128 59.752L3.83245 58.9815C3.66064 58.5366 3.31884 58.1777 2.88282 57.9844C2.4468 57.7911 1.95135 57.7788 1.50628 57.9502C1.21148 58.064 0.951761 58.2534 0.753345 58.4993C0.554928 58.7452 0.424722 59.0391 0.375871 59.3513C0.32702 59.6635 0.361225 59.9831 0.475033 60.2779L0.792904 61.1041C0.807309 61.1412 0.822943 61.1778 0.839779 61.2139L1.31292 62.2334C1.32935 62.2692 1.34693 62.3043 1.36566 62.3389L1.90179 63.3233C1.92025 63.3571 1.93979 63.3903 1.96038 63.4229L2.55658 64.3663C2.57704 64.3987 2.59854 64.4304 2.62103 64.4615L3.27581 65.3638C3.29825 65.3953 3.3217 65.4261 3.34613 65.4561L4.05658 66.313C4.08104 66.3427 4.10644 66.3715 4.13275 66.3995L4.89447 67.2081C4.92044 67.2363 4.94731 67.2636 4.97503 67.2901L5.78656 68.0489C5.81457 68.0747 5.84339 68.0996 5.87298 68.1236L6.73431 68.8326C6.76337 68.8564 6.79317 68.8794 6.82367 68.9014L7.7304 69.5533C7.76145 69.5758 7.7932 69.5973 7.82562 69.6177L8.77337 70.2139C8.80594 70.2345 8.83916 70.2541 8.87298 70.2725L9.85882 70.8057C9.89291 70.8244 9.9276 70.842 9.96283 70.8584L10.9882 71.3287C11.0233 71.3454 11.059 71.3611 11.0952 71.3755L12.1542 71.7813C12.1909 71.7957 12.228 71.8089 12.2656 71.8209L13.3569 72.1592C13.3951 72.1708 13.4337 72.181 13.4726 72.19L14.5917 72.4581C14.6305 72.4672 14.6696 72.475 14.7089 72.4815L15.8559 72.6749C15.8952 72.682 15.9348 72.6879 15.9745 72.6924L17.1464 72.8096C17.1869 72.8134 17.2274 72.8159 17.268 72.8169L18.4589 72.858C18.4994 72.8593 18.54 72.8593 18.5805 72.858L19.7714 72.8169C19.812 72.8159 19.8526 72.8134 19.893 72.8096L21.0649 72.6924C21.1046 72.6879 21.1442 72.682 21.1835 72.6749L22.3305 72.4815C22.3698 72.475 22.4089 72.4672 22.4477 72.4581L23.5668 72.19C23.6052 72.181 23.6433 72.1707 23.6811 72.1592L24.7709 71.8209C24.8094 71.809 24.8476 71.7958 24.8852 71.7813L25.9428 71.3755C25.9794 71.3611 26.0156 71.3455 26.0512 71.3287L27.0737 70.8584C27.1094 70.842 27.1446 70.8244 27.1791 70.8057L28.1664 70.2725C28.2003 70.2541 28.2335 70.2345 28.266 70.2139L29.2123 69.6177C29.2452 69.5973 29.2775 69.5758 29.309 69.5533L30.2128 68.9014C30.2443 68.8795 30.2751 68.8565 30.3051 68.8326L31.1635 68.1236C31.1931 68.0996 31.2219 68.0747 31.2499 68.0489L32.0629 67.2901C32.0911 67.2636 32.1185 67.2363 32.145 67.2081L32.9067 66.3995C32.933 66.3715 32.9584 66.3427 32.9828 66.313L33.6918 65.4561C33.7167 65.4261 33.7407 65.3954 33.7636 65.3638L34.4184 64.4615C34.4409 64.4304 34.4624 64.3987 34.4828 64.3663L35.0776 63.4229C35.0982 63.3903 35.1177 63.3571 35.1362 63.3233L35.6738 62.3389C35.6925 62.3043 35.7101 62.2692 35.7265 62.2334L36.1996 61.2139C36.2155 61.1778 36.2301 61.1411 36.2436 61.1041L36.6523 60.0494C36.6667 60.0122 36.6799 59.9746 36.6918 59.9366L37.0317 58.8497C37.0432 58.8119 37.0534 58.7738 37.0624 58.7354L37.3305 57.6177C37.3401 57.579 37.3484 57.5399 37.3554 57.5005L37.5488 56.3565C37.556 56.3167 37.5618 56.2766 37.5663 56.2364L37.685 55.0689C37.6893 55.0285 37.6922 54.9879 37.6938 54.9473L37.7319 53.7608C37.7333 53.7198 37.7333 53.6787 37.7319 53.6377L37.6938 52.4498C37.6922 52.4091 37.6893 52.3686 37.685 52.3282L37.5663 51.1607C37.5618 51.121 37.5559 51.0814 37.5488 51.042L37.3554 49.8965C37.3484 49.8572 37.3401 49.8181 37.3305 49.7793L37.0624 48.6631C37.0535 48.6242 37.0432 48.5856 37.0317 48.5474L36.6918 47.462C36.6799 47.4234 36.6667 47.3853 36.6523 47.3477L36.2436 46.293C36.2301 46.2564 36.2155 46.2203 36.1996 46.1846L35.7265 45.1651C35.7101 45.1294 35.6925 45.0942 35.6738 45.0596L35.1362 44.0767C35.1177 44.0424 35.0982 44.0087 35.0776 43.9756L34.4828 43.0323C34.4624 42.9994 34.4409 42.9671 34.4184 42.9356L33.7621 42.0333C33.7397 42.0027 33.7162 41.9729 33.6918 41.9439L32.9828 41.087C32.9584 41.0574 32.933 41.0285 32.9067 41.0005L32.145 40.1905C32.1185 40.1628 32.0911 40.1359 32.0629 40.1099L31.2499 39.3482C31.2219 39.3224 31.1931 39.2975 31.1635 39.2735L30.3051 38.5674C30.2751 38.543 30.2443 38.5196 30.2128 38.4971L29.309 37.8438C29.2775 37.8213 29.2452 37.7998 29.2123 37.7793L28.266 37.1846C28.2335 37.164 28.2003 37.1445 28.1664 37.126L27.1791 36.5928C27.1446 36.5741 27.1094 36.5565 27.0737 36.5401L26.9653 36.4888L27.0063 36.4712C27.041 36.4548 27.0752 36.4372 27.1088 36.4185L28.1049 35.8809C28.1387 35.8624 28.172 35.8429 28.2045 35.8223L29.1596 35.2276C29.1925 35.2072 29.2248 35.1857 29.2563 35.1631L30.166 34.5069C30.1975 34.4844 30.2282 34.461 30.2582 34.4366L31.1254 33.7276C31.1545 33.7031 31.1829 33.6777 31.2104 33.6514L32.0292 32.8868C32.0574 32.8613 32.0848 32.8349 32.1113 32.8077L32.8788 31.9932C32.9051 31.9652 32.9306 31.9364 32.955 31.9068L33.6699 31.0455C33.6942 31.0164 33.7177 30.9866 33.7402 30.9561L34.4008 30.0494C34.4233 30.0183 34.4448 29.9866 34.4653 29.9542L35.0659 29.0049C35.0864 28.9724 35.106 28.9391 35.1244 28.9053L35.6664 27.9166C35.6852 27.882 35.7028 27.8468 35.7192 27.8111L36.1952 26.7857C36.212 26.7506 36.2277 26.7149 36.2421 26.6788L36.6523 25.6182C36.6667 25.5806 36.6799 25.5425 36.6918 25.504L37.0331 24.4126C37.0447 24.3744 37.0549 24.3358 37.0639 24.2969L37.3364 23.1763C37.3455 23.137 37.3533 23.0975 37.3598 23.0577L37.5561 21.9092C37.5628 21.8689 37.5682 21.8283 37.5722 21.7876L37.6909 20.6158C37.6956 20.5754 37.6991 20.5348 37.7011 20.4942L37.7407 19.2989C37.7372 19.2754 37.7333 19.2519 37.7289 19.2286C37.7331 19.212 37.737 19.1954 37.7407 19.1788L37.7011 17.9849C37.6991 17.9438 37.6957 17.9028 37.6909 17.8619L37.5722 16.69C37.5682 16.6493 37.5628 16.6087 37.5561 16.5684L37.3598 15.42C37.3533 15.3807 37.3455 15.3416 37.3364 15.3028L37.0639 14.1807C37.0549 14.1418 37.0447 14.1032 37.0331 14.065L36.6918 12.9737C36.6799 12.9352 36.6667 12.8971 36.6523 12.8594L36.2421 11.8018C36.2277 11.7647 36.2121 11.728 36.1952 11.6919L35.7192 10.6666C35.7028 10.6308 35.6852 10.5957 35.6664 10.5611L35.1244 9.57232C35.106 9.53849 35.0864 9.50527 35.0659 9.47271L34.4653 8.52349C34.4448 8.49107 34.4233 8.45932 34.4008 8.42827L33.7402 7.52153C33.7177 7.49102 33.6942 7.46122 33.6699 7.43218L32.955 6.57085C32.9306 6.54124 32.9051 6.51241 32.8788 6.48443L32.1113 5.6729C32.0848 5.64468 32.0575 5.61733 32.0292 5.59087L31.2104 4.82622C31.1828 4.80093 31.1545 4.77651 31.1254 4.75298L30.2582 4.04107C30.2282 4.01664 30.1975 3.99319 30.166 3.97075L29.2563 3.31743C29.2248 3.29491 29.1925 3.27342 29.1596 3.25298L28.2045 2.65532C28.172 2.63473 28.1387 2.61519 28.1049 2.59673L27.1088 2.05913C27.0752 2.04096 27.041 2.02386 27.0063 2.00786L25.975 1.53325C25.9394 1.51743 25.9032 1.50278 25.8666 1.48931L24.7988 1.08062C24.7621 1.06622 24.725 1.05303 24.6874 1.04107L23.5903 0.701222C23.552 0.689688 23.5134 0.679428 23.4745 0.67046L22.3452 0.402394C22.3064 0.393287 22.2673 0.38547 22.228 0.378956L21.0722 0.184132C21.0333 0.177479 20.9942 0.172105 20.955 0.168019L19.7729 0.0493665C19.7334 0.0456195 19.6939 0.0431768 19.6542 0.0420423L18.4531 0.00102673C18.4125 -0.000342244 18.372 -0.000342244 18.3315 0.00102673Z" sodipodi:nodetypes="cccccccccccccccccccccccccccccccccccccccccccccccccccccccccccccccccccccccccccccccccccccccccccccccccccccccccccccccccccccccccccccccccccccccccccccccccccccccccccccccccccccccccccccccccccccccccccccccccccccccccccccccccccccccccccccccccccccccccccccccccccccccccccccccccccccccccccccccccccccccccccccccccccccccccccccccccccccccccccccccccccccccccccccccccccccccccccccccccccccccccccccccccccccccccccccccccccccc"/>
</svg>
