<?xml version="1.0" standalone="no"?>
<!DOCTYPE svg PUBLIC "-//W3C//DTD SVG 20010904//EN" "http://www.w3.org/TR/2001/REC-SVG-20010904/DTD/svg10.dtd">
<!-- Created using Krita: https://krita.org -->
<svg xmlns="http://www.w3.org/2000/svg" 
    xmlns:xlink="http://www.w3.org/1999/xlink"
    xmlns:krita="http://krita.org/namespaces/svg/krita"
    xmlns:sodipodi="http://sodipodi.sourceforge.net/DTD/sodipodi-0.dtd"
    width="92.16pt"
    height="92.16pt"
    viewBox="0 0 92.16 92.16">
<defs/>
<path id="shape0" transform="matrix(-0.645813937293208 0.707106163033052 0.645813937293207 0.707106163033053 50.0961069059389 -5.54926120969034)" fill="#ffffff" stroke-opacity="0" stroke="#000000" stroke-width="0" stroke-linecap="square" stroke-linejoin="bevel" d="M0.54296 21.05L21.6242 0.509467C21.9227 0.219217 22.3129 0.0413449 22.7278 0.00636278C23.1427 -0.0286194 23.5572 0.0814097 23.9001 0.317576L47.7122 16.6945C47.9541 16.8719 48.1478 17.1069 48.2757 17.3782C48.4853 17.5358 48.658 17.7374 48.7817 17.9687C48.9053 18.2001 48.9768 18.4557 48.9913 18.7176C49.0091 19.1944 48.8366 19.6593 48.5121 20.0092C48.1875 20.359 47.7368 20.5657 47.2599 20.5836C37.3256 20.9477 28.989 28.1284 27.1596 37.8997C25.3302 47.671 30.5041 57.3826 39.6339 61.3159C48.7638 65.2492 59.3728 62.3375 65.2174 54.2961C71.062 46.2546 70.5564 35.2641 63.9971 27.7942C63.7884 27.5568 63.646 27.2685 63.5841 26.9586C63.5222 26.6486 63.543 26.3278 63.6444 26.0284C63.7459 25.7291 63.9244 25.4616 64.162 25.2532C64.3995 25.0446 64.6879 24.9023 64.9979 24.8406C65.308 24.7788 65.6288 24.7998 65.9282 24.9015C66.2275 25.0031 66.4948 25.1818 66.7032 25.4195C74.3598 34.1391 74.9528 47.0263 68.1304 56.4129C61.308 65.7996 48.8658 69.2134 38.2087 64.6221C27.5516 60.0309 21.4866 48.6441 23.622 37.2382C25.4746 27.3428 33.0781 19.6977 42.6315 17.5678L23.076 4.12064L3.05711 23.6299C2.83062 23.8503 2.55001 24.0073 2.24363 24.0849C1.93725 24.1625 1.61577 24.1581 1.31164 24.072C1.00752 23.986 0.731359 23.8214 0.511043 23.5947C0.178052 23.2531 -0.00584132 22.7928 0.000141547 22.3158C0.00612441 21.8387 0.201506 21.3831 0.54296 21.05Z" sodipodi:nodetypes="ccccccccccccccccccccccccccccccc"/>
</svg>
