<?xml version="1.0" encoding="UTF-8" standalone="no"?>
<!-- Created using Krita: https://krita.org -->

<svg
   width="92.16pt"
   height="92.16pt"
   viewBox="0 0 92.16 92.16"
   version="1.1"
   id="svg6"
   sodipodi:docname="u0047.svg"
   inkscape:version="1.2.1 (9c6d41e410, 2022-07-14)"
   xmlns:inkscape="http://www.inkscape.org/namespaces/inkscape"
   xmlns:sodipodi="http://sodipodi.sourceforge.net/DTD/sodipodi-0.dtd"
   xmlns="http://www.w3.org/2000/svg"
   xmlns:svg="http://www.w3.org/2000/svg">
  <sodipodi:namedview
     id="namedview8"
     pagecolor="#ffffff"
     bordercolor="#111111"
     borderopacity="1"
     inkscape:showpageshadow="0"
     inkscape:pageopacity="0"
     inkscape:pagecheckerboard="1"
     inkscape:deskcolor="#d1d1d1"
     inkscape:document-units="pt"
     showgrid="false"
     inkscape:zoom="6.746419"
     inkscape:cx="61.365889"
     inkscape:cy="61.514116"
     inkscape:window-width="1920"
     inkscape:window-height="1009"
     inkscape:window-x="-8"
     inkscape:window-y="-8"
     inkscape:window-maximized="1"
     inkscape:current-layer="svg6" />
  <defs
     id="defs2" />
  <path
     id="shape0"
     style="color:#000000;fill:#ffffff;stroke-linecap:round;stroke-linejoin:round;-inkscape-stroke:none"
     d="M 9.2263125 8.4810923 C 5.7390646 11.866696 2.9017517 15.977771 0.96786632 20.646582 C -4.6579826 34.228581 -1.5438588 49.873889 8.8513523 60.269101 C 19.246563 70.664313 34.891873 73.778434 48.473871 68.152587 C 61.381529 62.80606 70.023406 50.558844 70.850293 36.73776 L 76.05416 41.941627 A 1.8000006 1.8000006 0 0 0 78.600161 41.943699 A 1.8000006 1.8000006 0 0 0 78.599125 39.396663 L 60.271651 21.069189 A 1.8001806 1.8001806 0 0 0 57.724615 21.068153 L 45.506299 33.286469 A 1.8000006 1.8000006 0 0 0 45.506299 35.834541 A 1.8000006 1.8000006 0 0 0 48.053336 35.833505 L 58.999687 24.887154 L 67.667275 33.554742 A 1.8 1.8 0 0 0 67.320281 34.560505 C 67.320281 47.815832 59.343616 59.754034 47.097291 64.826628 C 34.850966 69.899222 20.769248 67.097069 11.396317 57.724136 C 2.0233861 48.351205 -0.77773386 34.270524 4.2948611 22.024198 C 9.3674555 9.7778749 21.305658 1.8012079 34.560984 1.8012078 A 1.8 1.8 0 0 0 36.362243 -5.118451e-05 A 1.8 1.8 0 0 0 34.560984 -1.8013102 C 24.913421 -1.8013102 15.883786 2.017668 9.2263125 8.4810923 z "
     transform="matrix(0.707106334869218 0.707106334869218 -0.707106334869218 0.707106334869218 46.0799836946408 -2.79592048207731)" />
</svg>
