<?xml version="1.0" encoding="UTF-8" standalone="no"?>
<!-- Created using Krita: https://krita.org -->

<svg
   width="92.16pt"
   height="92.16pt"
   viewBox="0 0 92.16 92.16"
   version="1.1"
   id="svg6"
   sodipodi:docname="u0041.svg"
   inkscape:version="1.2.1 (9c6d41e410, 2022-07-14)"
   xmlns:inkscape="http://www.inkscape.org/namespaces/inkscape"
   xmlns:sodipodi="http://sodipodi.sourceforge.net/DTD/sodipodi-0.dtd"
   xmlns="http://www.w3.org/2000/svg"
   xmlns:svg="http://www.w3.org/2000/svg">
  <sodipodi:namedview
     id="namedview8"
     pagecolor="#ffffff"
     bordercolor="#111111"
     borderopacity="1"
     inkscape:showpageshadow="0"
     inkscape:pageopacity="0"
     inkscape:pagecheckerboard="1"
     inkscape:deskcolor="#d1d1d1"
     inkscape:document-units="pt"
     showgrid="false"
     inkscape:zoom="6.746419"
     inkscape:cx="61.365889"
     inkscape:cy="61.514116"
     inkscape:window-width="1920"
     inkscape:window-height="1009"
     inkscape:window-x="-8"
     inkscape:window-y="-8"
     inkscape:window-maximized="1"
     inkscape:current-layer="svg6" />
  <defs
     id="defs2" />
  <path
     id="shape0"
     style="color:#000000;fill:#ffffff;stroke-linecap:round;stroke-linejoin:round;-inkscape-stroke:none"
     d="M 34.561078 -1.7995238 A 1.80018 1.80018 0 0 0 32.94682 -0.79903502 L -1.6132566 68.893872 A 1.8 1.8 0 0 0 -0.79880306 71.306471 A 1.8 1.8 0 0 0 1.6137958 70.493482 L 13.996126 45.522278 A 1.8 1.8 0 0 0 15.065463 45.446106 C 29.066048 39.875257 40.148247 39.754466 54.039116 45.438782 A 1.8 1.8 0 0 0 55.126031 45.523743 L 67.508361 70.493482 A 1.8 1.8 0 0 0 69.919495 71.306471 A 1.8 1.8 0 0 0 70.732484 68.893872 L 36.172407 -0.79903502 A 1.80018 1.80018 0 0 0 34.561078 -1.7995238 z M 34.561078 4.0510651 L 52.96392 41.164366 C 46.603069 38.825258 40.600497 37.677126 34.59184 37.691219 C 28.571616 37.70534 22.54397 38.886083 16.145053 41.190733 L 34.561078 4.0510651 z "
     transform="matrix(0.999999483426557 0 0 0.999999483426557 11.5199940490739 10.9460072615713)" />
</svg>
