<?xml version="1.0" encoding="UTF-8" standalone="no"?>
<!-- Created using Krita: https://krita.org -->

<svg
   width="92.16pt"
   height="92.16pt"
   viewBox="0 0 92.16 92.16"
   version="1.1"
   id="svg49"
   sodipodi:docname="u004b.svg"
   inkscape:version="1.2.1 (9c6d41e410, 2022-07-14)"
   xmlns:inkscape="http://www.inkscape.org/namespaces/inkscape"
   xmlns:sodipodi="http://sodipodi.sourceforge.net/DTD/sodipodi-0.dtd"
   xmlns="http://www.w3.org/2000/svg"
   xmlns:svg="http://www.w3.org/2000/svg">
  <sodipodi:namedview
     id="namedview51"
     pagecolor="#ffffff"
     bordercolor="#111111"
     borderopacity="1"
     inkscape:showpageshadow="0"
     inkscape:pageopacity="0"
     inkscape:pagecheckerboard="1"
     inkscape:deskcolor="#d1d1d1"
     inkscape:document-units="pt"
     showgrid="false"
     inkscape:zoom="6.746419"
     inkscape:cx="61.365889"
     inkscape:cy="61.514116"
     inkscape:window-width="1920"
     inkscape:window-height="1009"
     inkscape:window-x="-8"
     inkscape:window-y="-8"
     inkscape:window-maximized="1"
     inkscape:current-layer="svg49" />
  <defs
     id="defs44" />
  <path
     id="shape0"
     style="color:#000000;fill:#ffffff;stroke-linecap:round;stroke-linejoin:round;-inkscape-stroke:none"
     d="M -7.4165734e-05 -1.8007609 A 1.8 1.8 0 0 0 -1.8003686 -0.00046646157 L -1.8003686 69.119708 A 1.8 1.8 0 0 0 -7.4165734e-05 70.920003 A 1.8 1.8 0 0 0 1.8002203 69.119708 L 1.8002203 38.003472 L 35.995561 70.424885 A 1.8 1.8 0 0 0 38.539997 70.358967 A 1.8 1.8 0 0 0 38.474079 67.814532 L 3.2723895 34.436574 L 38.46822 1.3105698 A 1.8 1.8 0 0 0 38.545856 -1.2338659 A 1.8 1.8 0 0 0 36.001421 -1.3100379 L 1.8002203 30.878466 L 1.8002203 -0.00046646157 A 1.8 1.8 0 0 0 -7.4165734e-05 -1.8007609 z "
     transform="matrix(0.999999165535339 0 0 0.999999165535339 26.1255624469225 11.5199977111801)" />
</svg>
