<?xml version="1.0" encoding="UTF-8" standalone="no"?>
<!-- Created using Krita: https://krita.org -->

<svg
   width="92.16pt"
   height="92.16pt"
   viewBox="0 0 92.16 92.16"
   version="1.1"
   id="svg6"
   sodipodi:docname="u0044.svg"
   inkscape:version="1.2.1 (9c6d41e410, 2022-07-14)"
   xmlns:inkscape="http://www.inkscape.org/namespaces/inkscape"
   xmlns:sodipodi="http://sodipodi.sourceforge.net/DTD/sodipodi-0.dtd"
   xmlns="http://www.w3.org/2000/svg"
   xmlns:svg="http://www.w3.org/2000/svg">
  <sodipodi:namedview
     id="namedview8"
     pagecolor="#ffffff"
     bordercolor="#111111"
     borderopacity="1"
     inkscape:showpageshadow="0"
     inkscape:pageopacity="0"
     inkscape:pagecheckerboard="1"
     inkscape:deskcolor="#d1d1d1"
     inkscape:document-units="pt"
     showgrid="false"
     inkscape:zoom="6.746419"
     inkscape:cx="61.365889"
     inkscape:cy="73.372259"
     inkscape:window-width="1920"
     inkscape:window-height="1009"
     inkscape:window-x="-8"
     inkscape:window-y="-8"
     inkscape:window-maximized="1"
     inkscape:current-layer="svg6" />
  <defs
     id="defs2" />
  <path
     id="shape0"
     style="color:#000000;fill:#ffffff;stroke-linecap:round;stroke-linejoin:round;-inkscape-stroke:none"
     d="M 70.920754 -10.581651 A 1.80018 1.80018 0 0 0 69.12046 -12.381729 L 0.00028348699 -12.381729 A 1.80018 1.80018 0 0 0 -1.800011 -10.581651 L -1.800011 -0.0045272093 A 1.8 1.8 0 0 0 -1.8014759 0.00047300676 C -1.8014759 0.019483265 -1.8000395 0.038138486 -1.800011 0.057142122 L -1.800011 0.93884689 A 1.8 1.8 0 0 0 -1.7692493 1.257194 C -1.1134731 21.019578 14.90148 36.900401 34.560372 36.900401 C 54.216512 36.900401 70.22862 21.024059 70.888528 1.2655277 A 1.8 1.8 0 0 0 70.920754 0.93884689 L 70.920754 -10.581651 z M 67.3187 -8.7799064 L 67.3187 0.060475599 C 67.286723 18.459916 52.639536 33.300245 34.560372 33.300245 C 16.461438 33.300245 1.800578 18.427809 1.800578 0.00047300676 A 1.8 1.8 0 0 0 1.7991131 -0.0045272093 L 1.7991131 -8.7799064 L 67.3187 -8.7799064 z "
     transform="matrix(0 -0.999999146077868 0.878868272496304 0 35.3916741331167 80.6399319242444)" />
</svg>
