<?xml version="1.0" encoding="UTF-8" standalone="no"?>
<!-- Created using Krita: https://krita.org -->

<svg
   width="92.16pt"
   height="92.16pt"
   viewBox="0 0 92.16 92.16"
   version="1.1"
   id="svg6"
   sodipodi:docname="u0042.svg"
   inkscape:version="1.2.1 (9c6d41e410, 2022-07-14)"
   xmlns:inkscape="http://www.inkscape.org/namespaces/inkscape"
   xmlns:sodipodi="http://sodipodi.sourceforge.net/DTD/sodipodi-0.dtd"
   xmlns="http://www.w3.org/2000/svg"
   xmlns:svg="http://www.w3.org/2000/svg">
  <sodipodi:namedview
     id="namedview8"
     pagecolor="#ffffff"
     bordercolor="#111111"
     borderopacity="1"
     inkscape:showpageshadow="0"
     inkscape:pageopacity="0"
     inkscape:pagecheckerboard="1"
     inkscape:deskcolor="#d1d1d1"
     inkscape:document-units="pt"
     showgrid="false"
     inkscape:zoom="6.746419"
     inkscape:cx="61.365889"
     inkscape:cy="61.514116"
     inkscape:window-width="1920"
     inkscape:window-height="1009"
     inkscape:window-x="-8"
     inkscape:window-y="-8"
     inkscape:window-maximized="1"
     inkscape:current-layer="svg6" />
  <defs
     id="defs2" />
  <path
     id="shape1"
     style="color:#000000;fill:#ffffff;stroke-linecap:round;stroke-linejoin:round;-inkscape-stroke:none"
     d="M 0.00048773287 -1.8012411 A 1.80018 1.80018 0 0 0 -1.8012716 0.00051821241 L -1.8012716 34.560605 A 1.80018 1.80018 0 0 0 -1.777834 34.680722 A 1.8001799 1.8001799 0 0 0 -1.7998067 34.789121 L -1.9814475 69.491298 A 1.8001799 1.8001799 0 0 0 -0.1796882 71.301846 L 15.09718 71.301846 A 1.8001799 1.8001799 0 0 0 15.110363 71.301846 L 17.292982 71.284268 A 1.8001799 1.8001799 0 0 0 17.341322 71.284268 L 18.500015 71.246182 A 1.8001799 1.8001799 0 0 0 18.624526 71.235928 L 19.761246 71.11874 A 1.8001799 1.8001799 0 0 0 19.884293 71.101162 L 20.997575 70.907803 A 1.8001799 1.8001799 0 0 0 21.116228 70.8829 L 22.206072 70.616299 A 1.8001799 1.8001799 0 0 0 22.321795 70.584072 L 23.382343 70.247158 A 1.8001799 1.8001799 0 0 0 23.495136 70.206142 L 24.524922 69.801845 A 1.8001799 1.8001799 0 0 0 24.634785 69.75497 L 25.62795 69.286219 A 1.8001799 1.8001799 0 0 0 25.733419 69.23202 L 26.692892 68.700281 A 1.8001799 1.8001799 0 0 0 26.792502 68.640223 L 27.713889 68.048425 A 1.8001799 1.8001799 0 0 0 27.810569 67.982507 L 28.689476 67.333581 A 1.8001799 1.8001799 0 0 0 28.778832 67.261804 L 29.615258 66.558678 A 1.8001799 1.8001799 0 0 0 29.700219 66.479576 L 30.48977 65.723716 A 1.8001799 1.8001799 0 0 0 30.570337 65.641685 L 31.310084 64.83602 A 1.8001799 1.8001799 0 0 0 31.384791 64.749595 L 32.073268 63.89559 A 1.8001799 1.8001799 0 0 0 32.14358 63.80477 L 32.779323 62.908284 A 1.8001799 1.8001799 0 0 0 32.840847 62.811605 L 33.420925 61.872639 A 1.8001799 1.8001799 0 0 0 33.478054 61.77303 L 33.999539 60.793048 A 1.8001799 1.8001799 0 0 0 34.050809 60.689044 L 34.509305 59.673907 A 1.8001799 1.8001799 0 0 0 34.554715 59.565508 L 34.950223 58.516679 A 1.8001799 1.8001799 0 0 0 34.988309 58.405351 L 35.317899 57.324296 A 1.8001799 1.8001799 0 0 0 35.347196 57.210038 L 35.609404 56.099685 A 1.8001799 1.8001799 0 0 0 35.632841 55.983962 L 35.821806 54.845778 A 1.8001799 1.8001799 0 0 0 35.837919 54.72859 L 35.952177 53.565503 A 1.8001799 1.8001799 0 0 0 35.960966 53.448316 L 35.999052 52.264721 A 1.7999999 1.7999999 0 0 0 35.990263 52.204662 A 1.7999999 1.7999999 0 0 0 35.999052 52.146069 L 35.960966 50.962474 A 1.8001799 1.8001799 0 0 0 35.952177 50.845286 L 35.837919 49.683664 A 1.8001799 1.8001799 0 0 0 35.821806 49.566477 L 35.632841 48.426827 A 1.8001799 1.8001799 0 0 0 35.609404 48.312569 L 35.347196 47.200752 A 1.8001799 1.8001799 0 0 0 35.317899 47.087959 L 34.988309 46.005439 A 1.8001799 1.8001799 0 0 0 34.950223 45.895575 L 34.554715 44.845281 A 1.8001799 1.8001799 0 0 0 34.509305 44.738348 L 34.050809 43.721745 A 1.8001799 1.8001799 0 0 0 33.999539 43.619206 L 33.478054 42.63776 A 1.8001799 1.8001799 0 0 0 33.420925 42.538151 L 32.840847 41.599185 A 1.8001799 1.8001799 0 0 0 32.779323 41.50397 L 32.14358 40.607485 A 1.8001799 1.8001799 0 0 0 32.073268 40.5152 L 31.384791 39.661195 A 1.8001799 1.8001799 0 0 0 31.310084 39.576234 L 30.570337 38.769105 A 1.8001799 1.8001799 0 0 0 30.48977 38.687073 L 29.700219 37.931213 A 1.8001799 1.8001799 0 0 0 29.615258 37.853576 L 28.778832 37.150451 A 1.8001799 1.8001799 0 0 0 28.689476 37.077209 L 27.810569 36.429747 A 1.8001799 1.8001799 0 0 0 27.713889 36.362364 L 26.792502 35.770567 A 1.8001799 1.8001799 0 0 0 26.692892 35.710508 L 25.733419 35.17877 A 1.8001799 1.8001799 0 0 0 25.62795 35.12457 L 24.954121 34.806699 L 25.629415 34.488828 A 1.80018 1.80018 0 0 0 25.734884 34.433164 L 26.692892 33.90289 A 1.80018 1.80018 0 0 0 26.792502 33.841366 L 27.715354 33.249569 A 1.80018 1.80018 0 0 0 27.809104 33.183651 L 28.689476 32.534724 A 1.80018 1.80018 0 0 0 28.778832 32.462947 L 29.615258 31.759822 A 1.80018 1.80018 0 0 0 29.701684 31.682185 L 30.48977 30.926325 A 1.80018 1.80018 0 0 0 30.570337 30.844293 L 31.310084 30.037164 A 1.80018 1.80018 0 0 0 31.384791 29.950738 L 32.074733 29.098198 A 1.80018 1.80018 0 0 0 32.142116 29.005913 L 32.779323 28.109428 A 1.80018 1.80018 0 0 0 32.842311 28.014213 L 33.42239 27.073783 A 1.80018 1.80018 0 0 0 33.478054 26.974173 L 33.999539 25.994192 A 1.80018 1.80018 0 0 0 34.050809 25.890188 L 34.509305 24.87505 A 1.80018 1.80018 0 0 0 34.554715 24.768117 L 34.951688 23.719288 A 1.80018 1.80018 0 0 0 34.988309 23.607959 L 35.317899 22.525439 A 1.80018 1.80018 0 0 0 35.347196 22.412646 L 35.609404 21.300829 A 1.80018 1.80018 0 0 0 35.631376 21.185106 L 35.820341 20.046921 A 1.80018 1.80018 0 0 0 35.836455 19.929734 L 35.953642 18.768112 A 1.80018 1.80018 0 0 0 35.960966 18.650924 L 35.997587 17.467329 A 1.8 1.8 0 0 0 35.988798 17.405806 A 1.8 1.8 0 0 0 35.997587 17.347212 L 35.960966 16.163617 A 1.80018 1.80018 0 0 0 35.953642 16.04643 L 35.836455 14.884808 A 1.80018 1.80018 0 0 0 35.820341 14.76762 L 35.631376 13.629436 A 1.80018 1.80018 0 0 0 35.609404 13.513713 L 35.347196 12.401896 A 1.80018 1.80018 0 0 0 35.317899 12.289102 L 34.988309 11.206582 A 1.80018 1.80018 0 0 0 34.951688 11.098184 L 34.554715 10.046425 A 1.80018 1.80018 0 0 0 34.509305 9.9394912 L 34.050809 8.9243536 A 1.80018 1.80018 0 0 0 33.999539 8.8203496 L 33.478054 7.8403684 A 1.80018 1.80018 0 0 0 33.42239 7.7407589 L 32.842311 6.8003285 A 1.80018 1.80018 0 0 0 32.779323 6.7051135 L 32.142116 5.8086284 A 1.80018 1.80018 0 0 0 32.074733 5.7163432 L 31.384791 4.8638034 A 1.80018 1.80018 0 0 0 31.310084 4.7773776 L 30.570337 3.970248 A 1.80018 1.80018 0 0 0 30.48977 3.8882167 L 29.701684 3.1323567 A 1.80018 1.80018 0 0 0 29.615258 3.0547199 L 28.778832 2.3515944 A 1.80018 1.80018 0 0 0 28.689476 2.279817 L 27.809104 1.6308906 A 1.80018 1.80018 0 0 0 27.712424 1.5649726 L 26.792502 0.97317526 A 1.80018 1.80018 0 0 0 26.692892 0.91165177 L 25.734884 0.3813779 A 1.80018 1.80018 0 0 0 25.629415 0.32571379 L 24.634785 -0.14303659 A 1.80018 1.80018 0 0 0 24.523457 -0.18991163 L 23.496601 -0.59420884 A 1.80018 1.80018 0 0 0 23.382343 -0.63522449 L 22.321795 -0.97067399 A 1.80018 1.80018 0 0 0 22.204607 -1.0043654 L 21.117692 -1.2695024 A 1.80018 1.80018 0 0 0 20.997575 -1.2944047 L 19.882828 -1.4877643 A 1.80018 1.80018 0 0 0 19.761246 -1.5053424 L 19.080093 -1.575655 L 19.080093 0.00051821241 A 1.80018 1.80018 0 0 0 17.279799 -1.8012411 L 0.00048773287 -1.8012411 z M 1.8007822 1.8008127 L 17.098158 1.8008127 A 1.80018 1.80018 0 0 0 17.218275 1.9253245 L 18.313979 1.9648753 L 19.327652 2.0688793 L 20.322282 2.241731 L 21.290544 2.4790359 L 22.233904 2.7778642 L 23.152362 3.1382161 L 24.038593 3.5571617 L 24.894063 4.0317715 L 25.717306 4.5605805 L 26.503927 5.1406591 L 27.249533 5.7720073 L 27.957054 6.4487657 L 28.620628 7.1694694 L 29.238793 7.9355833 L 29.808618 8.7397832 L 30.328638 9.582069 L 30.794458 10.459511 L 31.207544 11.36918 L 31.560572 12.31254 L 31.857936 13.280803 L 32.089381 14.279827 L 32.259303 15.299359 L 32.363307 16.343793 L 32.398463 17.405806 L 32.363307 18.470748 L 32.259303 19.515183 L 32.089381 20.537644 L 31.857936 21.533739 L 31.560572 22.503466 L 31.207544 23.445362 L 30.794458 24.35503 L 30.328638 25.232472 L 29.808618 26.076223 L 29.238793 26.878958 L 28.620628 27.645072 L 27.957054 28.365776 L 27.249533 29.042534 L 26.503927 29.673882 L 25.717306 30.253961 L 24.894063 30.78277 L 24.038593 31.25738 L 23.152362 31.676325 L 22.233904 32.036677 L 21.290544 32.335506 L 20.322282 32.57281 L 19.327652 32.745662 L 18.313979 32.851131 L 17.279799 32.886287 L 16.245618 32.851131 L 15.463391 32.7691 A 1.80018 1.80018 0 0 0 15.277356 32.760311 L 1.8007822 32.760311 L 1.8007822 1.8008127 z M 1.7905283 36.614318 L 18.337417 36.765197 L 19.329117 36.866271 L 20.322282 37.040588 L 21.290544 37.276428 L 22.235369 37.575256 L 23.152362 37.937073 L 24.038593 38.354553 L 24.895528 38.829163 L 25.71877 39.359437 L 26.503927 39.939516 L 27.250998 40.569399 L 27.957054 41.247622 L 28.620628 41.968326 L 29.237328 42.73444 L 29.808618 43.53864 L 30.327173 44.380926 L 30.794458 45.256903 L 31.20608 46.168036 L 31.560572 47.111397 L 31.856471 48.079659 L 32.089381 49.077218 L 32.259303 50.096751 L 32.363307 51.14265 L 32.398463 52.204662 L 32.363307 53.269605 L 32.259303 54.314039 L 32.089381 55.335036 L 31.856471 56.331131 L 31.560572 57.302323 L 31.20608 58.244218 L 30.794458 59.153887 L 30.327173 60.031329 L 29.808618 60.87508 L 29.237328 61.677815 L 28.620628 62.442464 L 27.957054 63.163167 L 27.250998 63.841391 L 26.503927 64.472739 L 25.71877 65.052817 L 24.895528 65.581627 L 24.038593 66.056236 L 23.152362 66.473717 L 22.235369 66.835534 L 21.290544 67.134362 L 20.322282 67.370202 L 19.329117 67.544519 L 18.313979 67.649988 L 17.241713 67.685144 L 15.09132 67.701257 L 1.6308602 67.701257 L 1.7905283 36.614318 z "
     transform="matrix(0.999999182660794 0 0 0.999999182660794 28.9799810175285 11.1381536630106)" />
</svg>
