<?xml version="1.0" encoding="UTF-8" standalone="no"?>
<!-- Created using Krita: https://krita.org -->

<svg
   width="92.16pt"
   height="92.16pt"
   viewBox="0 0 92.16 92.16"
   version="1.1"
   id="svg15"
   sodipodi:docname="u0048.svg"
   inkscape:version="1.2.1 (9c6d41e410, 2022-07-14)"
   xmlns:inkscape="http://www.inkscape.org/namespaces/inkscape"
   xmlns:sodipodi="http://sodipodi.sourceforge.net/DTD/sodipodi-0.dtd"
   xmlns="http://www.w3.org/2000/svg"
   xmlns:svg="http://www.w3.org/2000/svg">
  <sodipodi:namedview
     id="namedview17"
     pagecolor="#ffffff"
     bordercolor="#111111"
     borderopacity="1"
     inkscape:showpageshadow="0"
     inkscape:pageopacity="0"
     inkscape:pagecheckerboard="1"
     inkscape:deskcolor="#d1d1d1"
     inkscape:document-units="pt"
     showgrid="false"
     inkscape:zoom="6.746419"
     inkscape:cx="61.365889"
     inkscape:cy="61.514116"
     inkscape:window-width="1920"
     inkscape:window-height="1009"
     inkscape:window-x="-8"
     inkscape:window-y="-8"
     inkscape:window-maximized="1"
     inkscape:current-layer="svg15" />
  <defs
     id="defs10" />
  <path
     id="shape0"
     style="color:#000000;fill:#ffffff;stroke-linecap:round;stroke-linejoin:round;-inkscape-stroke:none"
     d="M -0.00067304813 -1.8007536 A 1.8 1.8 0 0 0 -1.8006725 -0.00045913735 L -1.8006725 69.119716 A 1.8 1.8 0 0 0 -0.00067304813 70.92001 A 1.8 1.8 0 0 0 1.8010024 69.119716 L 1.8010024 36.359923 L 44.278644 36.361388 L 44.278644 69.119716 A 1.8 1.8 0 0 0 46.080319 70.92001 A 1.8 1.8 0 0 0 47.880319 69.119716 L 47.880319 -0.00045913735 A 1.8 1.8 0 0 0 46.080319 -1.8007536 A 1.8 1.8 0 0 0 44.278644 -0.00045913735 L 44.278644 32.759334 L 1.8010024 32.760799 L 1.8010024 -0.00045913735 A 1.8 1.8 0 0 0 -0.00067304813 -1.8007536 z "
     transform="matrix(0.874023687605459 0 0 0.999999165535339 25.9649437287576 11.5199903869671)" />
</svg>
