<?xml version="1.0" encoding="UTF-8" standalone="no"?>
<!-- Created using Krita: https://krita.org -->

<svg
   width="92.16pt"
   height="92.16pt"
   viewBox="0 0 92.16 92.16"
   version="1.1"
   id="svg24"
   sodipodi:docname="u0049.svg"
   inkscape:version="1.2.1 (9c6d41e410, 2022-07-14)"
   xmlns:inkscape="http://www.inkscape.org/namespaces/inkscape"
   xmlns:sodipodi="http://sodipodi.sourceforge.net/DTD/sodipodi-0.dtd"
   xmlns="http://www.w3.org/2000/svg"
   xmlns:svg="http://www.w3.org/2000/svg">
  <sodipodi:namedview
     id="namedview26"
     pagecolor="#ffffff"
     bordercolor="#111111"
     borderopacity="1"
     inkscape:showpageshadow="0"
     inkscape:pageopacity="0"
     inkscape:pagecheckerboard="1"
     inkscape:deskcolor="#d1d1d1"
     inkscape:document-units="pt"
     showgrid="false"
     inkscape:zoom="6.746419"
     inkscape:cx="61.365889"
     inkscape:cy="61.514116"
     inkscape:window-width="1920"
     inkscape:window-height="1009"
     inkscape:window-x="-8"
     inkscape:window-y="-8"
     inkscape:window-maximized="1"
     inkscape:current-layer="svg24" />
  <defs
     id="defs19" />
  <path
     id="shape0"
     style="color:#000000;fill:#ffffff;stroke-linecap:round;stroke-linejoin:round;-inkscape-stroke:none"
     d="M -0.00037170443 -1.8004989 A 1.8 1.8 0 0 0 -0.772345 -1.6086043 L -8.6400274 -1.6086043 A 1.8 1.8 0 0 0 -10.440322 0.19169022 A 1.8 1.8 0 0 0 -8.6400274 1.9934495 L -1.8006662 1.9934495 L -1.8006662 67.511571 L -8.6400274 67.511571 A 1.8 1.8 0 0 0 -10.440322 69.311865 A 1.8 1.8 0 0 0 -8.6400274 71.113624 L -0.75476687 71.113624 A 1.8 1.8 0 0 0 -0.00037170443 71.295265 A 1.8 1.8 0 0 0 0.78185551 71.113624 L 8.6392839 71.113624 A 1.8 1.8 0 0 0 10.439578 69.311865 A 1.8 1.8 0 0 0 8.6392839 67.511571 L 1.8013876 67.511571 L 1.8013876 1.9934495 L 8.6392839 1.9934495 A 1.8 1.8 0 0 0 10.439578 0.19169022 A 1.8 1.8 0 0 0 8.6392839 -1.6086043 L 0.80675788 -1.6086043 A 1.8 1.8 0 0 0 -0.00037170443 -1.8004989 z "
     transform="matrix(0.999999165535339 0 0 0.999999165535339 46.0799615478684 11.3278411904042)" />
</svg>
