<?xml version="1.0" encoding="UTF-8" standalone="no"?>
<!-- Created using Krita: https://krita.org -->

<svg
   width="92.16pt"
   height="92.16pt"
   viewBox="0 0 92.16 92.16"
   version="1.1"
   id="svg40"
   sodipodi:docname="u004a.svg"
   inkscape:version="1.2.1 (9c6d41e410, 2022-07-14)"
   xmlns:inkscape="http://www.inkscape.org/namespaces/inkscape"
   xmlns:sodipodi="http://sodipodi.sourceforge.net/DTD/sodipodi-0.dtd"
   xmlns="http://www.w3.org/2000/svg"
   xmlns:svg="http://www.w3.org/2000/svg">
  <sodipodi:namedview
     id="namedview42"
     pagecolor="#ffffff"
     bordercolor="#111111"
     borderopacity="1"
     inkscape:showpageshadow="0"
     inkscape:pageopacity="0"
     inkscape:pagecheckerboard="1"
     inkscape:deskcolor="#d1d1d1"
     inkscape:document-units="pt"
     showgrid="false"
     inkscape:zoom="6.746419"
     inkscape:cx="61.365889"
     inkscape:cy="61.514116"
     inkscape:window-width="1920"
     inkscape:window-height="1009"
     inkscape:window-x="-8"
     inkscape:window-y="-8"
     inkscape:window-maximized="1"
     inkscape:current-layer="svg40" />
  <defs
     id="defs35" />
  <path
     id="shape0"
     style="color:#000000;fill:#ffffff;stroke-linecap:round;stroke-linejoin:round;-inkscape-stroke:none"
     d="M 0.023841954 -1.8009406 A 1.8 1.8 0 0 0 -0.87557287 -1.5241888 L -17.280372 -1.5241888 A 1.8 1.7003613 0 0 0 -19.080666 0.17645065 A 1.8 1.7003613 0 0 0 -17.280372 1.8784739 L -1.7793822 1.8784739 L -1.8013549 49.146289 A 1.8 1.8 0 0 0 -1.7984252 49.158743 A 1.6775409 1.4169668 0 0 0 -1.8365112 49.317875 C -1.8365112 55.944132 -9.2876812 61.503254 -18.799416 61.503254 C -28.311151 61.503254 -35.762321 55.944132 -35.762321 49.317875 A 1.6775409 1.4169668 0 0 0 -37.439569 47.899522 A 1.6775409 1.4169668 0 0 0 -39.118281 49.317875 C -39.118281 57.716915 -29.877651 64.337192 -18.799416 64.337192 C -8.0643158 64.337192 0.94386925 58.120426 1.4916166 50.09278 A 1.8 1.8 0 0 0 1.8006989 49.149056 L 1.8226716 -0.00067047265 A 1.8 1.8 0 0 0 0.023841954 -1.8009406 z "
     transform="matrix(0.999999152079627 0 0 1.05859764805682 63.3599471283189 11.3327410107695)" />
</svg>
