<?xml version="1.0" encoding="UTF-8" standalone="no"?>
<!-- Created using Krita: https://krita.org -->

<svg
   width="92.16pt"
   height="92.16pt"
   viewBox="0 0 92.16 92.16"
   version="1.1"
   id="svg57"
   sodipodi:docname="u0052.svg"
   inkscape:version="1.2.1 (9c6d41e410, 2022-07-14)"
   xmlns:inkscape="http://www.inkscape.org/namespaces/inkscape"
   xmlns:sodipodi="http://sodipodi.sourceforge.net/DTD/sodipodi-0.dtd"
   xmlns="http://www.w3.org/2000/svg"
   xmlns:svg="http://www.w3.org/2000/svg">
  <sodipodi:namedview
     id="namedview59"
     pagecolor="#ffffff"
     bordercolor="#111111"
     borderopacity="1"
     inkscape:showpageshadow="0"
     inkscape:pageopacity="0"
     inkscape:pagecheckerboard="1"
     inkscape:deskcolor="#d1d1d1"
     inkscape:document-units="pt"
     showgrid="false"
     inkscape:zoom="6.746419"
     inkscape:cx="61.365889"
     inkscape:cy="61.514116"
     inkscape:window-width="1920"
     inkscape:window-height="1009"
     inkscape:window-x="-8"
     inkscape:window-y="-8"
     inkscape:window-maximized="1"
     inkscape:current-layer="svg57" />
  <defs
     id="defs53" />
  <path
     id="shape0"
     style="color:#000000;fill:#ffffff;stroke-linecap:round;stroke-linejoin:round;-inkscape-stroke:none"
     d="M 17.279605 -1.8010232 L 2.8787207 -1.7995583 A 1.8 1.8 0 0 0 1.6790132 -0.59838601 A 1.8 1.8 0 0 0 0.00030169811 -1.7995583 A 1.8 1.8 0 0 0 -1.8014567 0.0022001392 L -1.8014567 69.120877 A 1.8 1.8 0 0 0 0.00030169811 70.92117 A 1.8 1.8 0 0 0 1.8005953 69.120877 L 1.8005953 35.93483 A 1.8 1.8 0 0 0 2.8274511 36.3611 L 16.933901 36.359635 C 17.007702 36.359915 17.078766 36.355771 17.152163 36.35524 A 1.8000001 1.8000001 0 0 0 17.168276 36.35817 C 22.712547 36.698771 25.701655 39.257335 27.555487 42.292254 C 29.409318 45.327173 29.931804 48.970556 29.88166 50.709249 A 1.8001801 1.8001801 0 0 0 29.880195 50.760519 L 29.880195 69.122342 A 1.8000001 1.8000001 0 0 0 31.680489 70.92117 A 1.8000001 1.8000001 0 0 0 33.479317 69.122342 L 33.479317 50.813253 C 33.551319 48.318256 32.960451 44.236925 30.627266 40.417253 C 29.282308 38.215415 27.291557 36.14597 24.577459 34.708755 C 26.785413 33.652532 28.64257 32.142489 30.099922 30.339125 C 33.017242 26.729157 34.410563 22.030954 34.421212 17.35328 C 34.431862 12.675606 33.061854 7.9721281 30.200996 4.3410689 C 27.340137 0.71000957 22.900828 -1.7726043 17.288394 -1.8010232 A 1.80018 1.80018 0 0 0 17.279605 -1.8010232 z M 1.8005953 1.3527866 A 1.8 1.8 0 0 0 2.8801855 1.8010289 L 17.279605 1.8010289 C 21.872942 1.8265279 25.111681 3.6983052 27.372382 6.5676321 C 29.634447 9.4386911 30.829639 13.383692 30.820625 17.343027 C 30.811625 21.302361 29.600865 25.229539 27.300604 28.07594 C 25.000345 30.922342 21.687773 32.777067 16.947085 32.759048 A 1.80018 1.80018 0 0 0 16.941226 32.759048 L 2.8274511 32.761977 A 1.8 1.8 0 0 0 1.8005953 33.186782 L 1.8005953 1.3527866 z "
     transform="matrix(0.99999964886508 0 0 0.99999964886508 28.7999912707442 11.5187959553471)" />
</svg>
