<?xml version="1.0" encoding="UTF-8" standalone="no"?>
<!-- Created using Krita: https://krita.org -->

<svg
   width="92.16pt"
   height="92.16pt"
   viewBox="0 0 92.16 92.16"
   version="1.1"
   id="svg66"
   sodipodi:docname="u0053.svg"
   inkscape:version="1.2.1 (9c6d41e410, 2022-07-14)"
   xmlns:inkscape="http://www.inkscape.org/namespaces/inkscape"
   xmlns:sodipodi="http://sodipodi.sourceforge.net/DTD/sodipodi-0.dtd"
   xmlns="http://www.w3.org/2000/svg"
   xmlns:svg="http://www.w3.org/2000/svg">
  <sodipodi:namedview
     id="namedview68"
     pagecolor="#ffffff"
     bordercolor="#111111"
     borderopacity="1"
     inkscape:showpageshadow="0"
     inkscape:pageopacity="0"
     inkscape:pagecheckerboard="1"
     inkscape:deskcolor="#d1d1d1"
     inkscape:document-units="pt"
     showgrid="false"
     inkscape:zoom="6.746419"
     inkscape:cx="61.365889"
     inkscape:cy="61.514116"
     inkscape:window-width="1920"
     inkscape:window-height="1009"
     inkscape:window-x="-8"
     inkscape:window-y="-8"
     inkscape:window-maximized="1"
     inkscape:current-layer="svg66" />
  <defs
     id="defs61" />
  <path
     id="shape0"
     style="color:#000000;fill:#ffffff;stroke-linecap:round;stroke-linejoin:round;-inkscape-stroke:none"
     d="M 17.318316 -1.8001098 C 11.153373 -1.7654761 6.2796451 0.63800362 3.0580503 4.2438406 C -0.16354464 7.8496776 -1.7657732 12.581491 -1.7993757 17.295609 C -1.8329786 22.009727 -0.29550426 26.75519 2.9159603 30.37521 C 6.1274249 33.99523 11.035452 36.40316 17.313922 36.449922 A 1.80018 1.80018 0 0 0 17.318316 36.449922 C 22.764064 36.480432 26.567702 38.458145 29.124967 41.371801 C 31.682231 44.285456 32.965133 48.22563 32.92331 52.182357 C 32.88149 56.139083 31.512357 60.060384 28.933072 62.922601 C 26.47176 65.653902 22.93979 67.490651 18.062457 67.583737 A 1.8 1.8 0 0 0 17.3315 67.425534 L 2.9320736 67.393307 A 1.8 1.8 0 0 0 1.1273846 69.189207 A 1.8 1.8 0 0 0 2.9232845 70.993896 L 16.725054 71.026123 A 1.8 1.8 0 0 0 17.300738 71.188721 C 23.466812 71.283021 28.365391 68.930438 31.607879 65.33227 C 34.850367 61.734103 36.473635 56.974372 36.523899 52.218978 C 36.574158 47.463585 35.050465 42.662826 31.832 38.995823 C 28.614229 35.329609 23.675715 32.885856 17.341754 32.849333 L 17.337359 32.849333 C 11.943776 32.808171 8.1579778 30.858388 5.6098102 27.986048 C 3.0609858 25.112967 1.7733385 21.231089 1.8012133 17.320512 C 1.8290882 13.409936 3.175143 9.5191479 5.744576 6.6432567 C 8.2634753 3.8239263 11.93059 1.9114155 17.032671 1.8092683 A 1.8 1.8 0 0 0 17.321246 1.8429597 L 31.720672 1.9000886 A 1.8 1.8 0 0 0 33.526826 0.1071184 A 1.8 1.8 0 0 0 31.73532 -1.7005003 L 17.476519 -1.7590941 A 1.8 1.8 0 0 0 17.318316 -1.8001098 z "
     transform="matrix(0.999999165535339 0 0 0.999999165535339 28.7524991508612 11.4299910635205)" />
</svg>
