<svg xmlns="http://www.w3.org/2000/svg" 
    xmlns:xlink="http://www.w3.org/1999/xlink"
    xmlns:krita="http://krita.org/namespaces/svg/krita"
    xmlns:sodipodi="http://sodipodi.sourceforge.net/DTD/sodipodi-0.dtd"
    width="737.28pt"
    height="737.28pt"
    viewBox="0 0 737.28 737.28">
<defs/>
<circle id="shape0" 
transform="matrix(7.42916471414943 0 0 7.42916471414943 47.700011106566 47.700011106566)" 
r="43.2" cx="43.2" cy="43.2" fill="none" stroke="#ffffff" stroke-width="3.6" 
stroke-linecap="square" stroke-linejoin="bevel"/><path id="shape1" transform="matrix(7.42916471414943 0 0 7.42916471414943 56.2966690555439 185.321062690582)" fill="none" stroke="#ffffff" stroke-width="3.6" stroke-linecap="square" stroke-linejoin="miter" stroke-miterlimit="2" d="M8.87145 49.3512L75.6 49.3512M0 24.6857L84.0858 24.6857M8.48575 0L75.7929 0" sodipodi:nodetypes="cccccc"/><path id="shape2" transform="matrix(7.42916471414943 0 0 7.42916471414943 216.365080528371 50.3744940489647)" fill="none" stroke="#ffffff" stroke-width="3.6" stroke-linecap="square" stroke-linejoin="miter" stroke-miterlimit="2" d="M20.4969 85.5L20.4969 0M40.9839 43.0033C40.9839 19.7081 31.8094 0.82361 20.492 0.82361C9.1746 0.82361 0 19.7081 0 43.0033C0 66.2986 9.1746 85.1831 20.492 85.1831C31.8094 85.1831 40.9839 66.2986 40.9839 43.0033" sodipodi:nodetypes="ccccccc"/>
</svg>
