<?xml version="1.0" encoding="UTF-8"?>
<!-- Created using Krita: https://krita.org -->
<svg width="737.28pt" height="737.28pt" version="1.1" viewBox="0 0 737.28 737.28" xmlns="http://www.w3.org/2000/svg">
 <path transform="translate(322.56 588.96)" d="m92.16 46.08a46.08 46.08 0 0 1-46.08 46.08 46.08 46.08 0 0 1-46.08-46.08 46.08 46.08 0 0 1 46.08-46.08 46.08 46.08 0 0 1 46.08 46.08z" color="#000000" fill="#fff" fill-rule="evenodd" stroke-width="0"/>
 <path transform="matrix(1 0 0 1 207.35 65.34)" d="m159.79-39.562c-48.159 0.83606-96.489 15.286-134.82 45.613-38.333 30.327-65.189 78.82-64.555 136.4a39.6 39.6 0 0 0 40.033 39.162 39.6 39.6 0 0 0 39.162-40.033c-0.37719-34.267 12.564-56.067 34.498-73.42 21.934-17.353 54.344-27.971 87.059-28.539s64.72 8.8753 86.449 25.662c21.68 16.749 35.255 38.926 35.344 76.52-0.60729 36.842-7.9036 50.262-16.207 59.705-8.3345 9.4781-22.888 16.97-44.516 29.037-21.628 12.067-49.598 30.306-69.406 63.266-19.808 32.959-30.726 77.482-31.139 140.62a39.6 39.6 0 0 0 39.34 39.859 39.6 39.6 0 0 0 39.859-39.342c0.35474-54.268 9.6552-83.423 19.824-100.34 10.169-16.92 21.936-24.76 40.111-34.9s43.491-20.986 65.4-45.902c21.91-24.916 35.198-61.913 35.939-111.2a39.604 39.604 0 0 0 6e-3 -0.625c-0.04487-59.718-27.056-109.19-66.137-139.38-39.08-30.191-88.085-43.01-136.24-42.174z" color="#000000" fill="#fff" stroke-linecap="round" stroke-linejoin="round" />
</svg>
