<?xml version="1.0" encoding="UTF-8" standalone="no"?>
<svg
   width="737.28pt"
   height="737.28pt"
   viewBox="0 0 737.28 737.28"
   version="1.1"
   id="svg2179"
   xmlns="http://www.w3.org/2000/svg"
   xmlns:svg="http://www.w3.org/2000/svg">
  <defs
     id="defs2183" />
  <path
     style="color:#000000;fill:#ffffff;fill-rule:evenodd;stroke-width:0;stroke-linecap:square;stroke-linejoin:bevel;"
     d="M 92.160004,46.080002 A 46.080002,46.080002 0 0 1 46.080002,92.160004 46.080002,46.080002 0 0 1 0,46.080002 46.080002,46.080002 0 0 1 46.080002,0 46.080002,46.080002 0 0 1 92.160004,46.080002 Z"
     id="path2437"
     transform="translate(322.56001,588.96001)" />
  <path
     style="color:#000000;fill:#ffffff;stroke-linecap:round;stroke-linejoin:round;"
     d="M 0,-39.599609 A 39.599998,39.599998 0 0 0 -39.599609,0 V 340.91992 A 39.599998,39.599998 0 0 0 0,380.51953 39.599998,39.599998 0 0 0 39.599609,340.91992 V 0 A 39.599998,39.599998 0 0 0 0,-39.599609 Z"
     id="path2434"
     transform="translate(368.64, 161.28)" />
</svg>
