<svg
   width="737.28pt"
   height="737.28pt"
   viewBox="0 0 737.28 737.28"
   
   xmlns="http://www.w3.org/2000/svg">
  <path
     id="shape0"
     style="color:#000000;fill:#ffffff;stroke-linecap:round;stroke-linejoin:round;stroke:none"
     d="M 46.080036 -7.1993062 C 16.687543 -7.1993063 -7.1992833 16.687643 -7.1992832 46.080136 C -7.1992833 75.472628 16.687543 99.359578 46.080036 99.359578 L 184.32035 99.359578 C 213.71284 99.359578 237.59966 75.472627 237.59966 46.080136 C 237.59966 16.687643 213.71284 -7.1993063 184.32035 -7.1993062 L 46.080036 -7.1993062 z M 46.080036 7.1994533 L 184.32035 7.1994533 C 205.98433 7.1994533 223.19918 24.416138 223.19918 46.080136 C 223.19918 67.744132 205.98433 84.960818 184.32035 84.960818 L 46.080036 84.960818 C 24.416039 84.960818 7.1993533 67.744132 7.1993533 46.080136 C 7.1993533 24.416139 24.416039 7.1994533 46.080036 7.1994533 z M 171.85099 11.712218 C 170.65042 11.712218 169.46201 11.753377 168.28621 11.830225 C 168.2854 11.830278 168.28457 11.830172 168.28375 11.830225 A 43.200002 34.560001 0 0 0 168.28068 11.830717 C 158.41989 12.476212 149.49731 15.770033 142.62595 20.822812 A 43.200002 34.560001 0 0 0 142.55158 20.878373 C 141.70621 21.502929 140.89232 22.154163 140.11155 22.830397 A 43.200002 34.560001 0 0 0 140.03656 22.894809 C 139.24226 23.586269 138.48258 24.303371 137.76002 25.044986 C 132.05255 30.902992 128.65078 38.269723 128.65078 46.272388 C 128.65078 54.275053 132.05255 61.641292 137.76002 67.499298 C 138.48258 68.240914 139.24226 68.958016 140.03656 69.649475 A 43.200002 34.560001 0 0 0 140.11155 69.713887 C 140.89327 70.390945 141.70818 71.043117 142.55465 71.66837 A 43.200002 34.560001 0 0 0 142.6241 71.719997 C 149.49573 76.773604 158.41894 80.068009 168.28068 80.713568 A 43.200002 34.560001 0 0 0 168.28375 80.714059 C 168.28457 80.714113 168.2854 80.714006 168.28621 80.714059 C 169.46201 80.790907 170.65042 80.832066 171.85099 80.832066 C 173.05151 80.832066 174.24001 80.790901 175.41577 80.714059 A 43.200002 34.560001 0 0 0 175.41823 80.714059 C 175.41927 80.713992 175.42027 80.713635 175.4213 80.713568 C 185.28004 80.068231 194.20093 76.775885 201.07174 71.724914 A 43.200002 34.560001 0 0 0 201.15655 71.661486 C 201.99949 71.038479 202.81113 70.388783 203.58982 69.714379 A 43.200002 34.560001 0 0 0 203.66542 69.649475 C 204.45973 68.958016 205.2194 68.240914 205.94196 67.499298 C 210.96337 62.345458 214.19782 56.023852 214.90308 49.128637 C 214.90323 49.127156 214.90354 49.125693 214.9037 49.124212 C 214.99976 48.183571 215.0512 47.232841 215.0512 46.272388 C 215.0512 45.951813 215.04484 45.632065 215.03399 45.313585 A 43.200002 34.560001 0 0 0 215.02539 45.136575 C 215.01474 44.872714 215.00099 44.609743 214.98298 44.347407 A 43.200002 34.560001 0 0 0 214.97007 44.182198 C 214.94908 43.90072 214.92446 43.620042 214.89509 43.340418 A 43.200002 34.560001 0 0 0 214.88772 43.275023 C 214.85383 42.95957 214.81411 42.645421 214.76971 42.332446 C 213.90773 36.257093 211.0777 30.660051 206.80058 25.958553 C 206.5695 25.704542 206.33444 25.453007 206.095 25.204295 A 43.200002 34.560001 0 0 0 206.036 25.143325 C 205.7985 24.897763 205.5581 24.654384 205.31259 24.414143 C 205.30632 24.407999 205.30044 24.401599 205.29416 24.395458 A 43.200002 34.560001 0 0 0 205.28862 24.39005 C 205.02975 24.137172 204.76703 23.88704 204.49946 23.640217 C 204.25057 23.410632 203.99727 23.183934 203.74102 22.959713 A 43.200002 34.560001 0 0 0 203.49702 22.750251 C 203.31614 22.594576 203.13441 22.439566 202.95001 22.286584 A 43.200002 34.560001 0 0 0 202.65683 22.046637 C 202.48679 21.908266 202.31531 21.771166 202.1424 21.63509 A 43.200002 34.560001 0 0 0 201.8185 21.382359 C 201.63055 21.237501 201.44056 21.094267 201.24936 20.952127 A 43.200002 34.560001 0 0 0 201.00351 20.768725 C 200.71938 20.560745 200.43224 20.355537 200.14121 20.153617 C 199.83192 19.939028 199.51835 19.728405 199.20146 19.520807 C 199.2 19.51985 199.19861 19.518813 199.19715 19.517857 A 43.200002 34.560001 0 0 0 199.18425 19.509498 C 198.87745 19.308725 198.56623 19.112076 198.25249 18.91799 A 43.200002 34.560001 0 0 0 198.19594 18.88308 C 197.88228 18.689702 197.56491 18.500266 197.24452 18.313699 C 197.24405 18.313429 197.24375 18.312985 197.24329 18.312715 A 43.200002 34.560001 0 0 0 197.24206 18.312223 C 191.06245 14.714475 183.64558 12.39619 175.59708 11.843009 A 43.200002 34.560001 0 0 0 175.51595 11.837109 C 175.14952 11.812477 174.7817 11.79144 174.41272 11.774172 A 43.200002 34.560001 0 0 0 174.2818 11.76778 C 173.93465 11.752372 173.58625 11.740698 173.23695 11.731886 A 43.200002 34.560001 0 0 0 173.05072 11.725986 C 172.65204 11.717286 172.25232 11.712218 171.85099 11.712218 z M 46.079421 118.96882 C 16.686932 118.96882 -7.1998978 142.85577 -7.1998978 172.24826 C -7.1998978 201.64075 16.686932 225.52721 46.079421 225.52721 L 184.31973 225.52721 C 213.71222 225.52721 237.59905 201.64075 237.59905 172.24826 C 237.59905 142.85577 213.71222 118.96882 184.31973 118.96882 L 46.079421 118.96882 z M 46.079421 133.36708 L 184.31973 133.36708 C 205.98373 133.36708 223.20103 150.58426 223.20103 172.24826 C 223.20103 193.91225 205.98373 211.12894 184.31973 211.12894 L 46.079421 211.12894 C 24.415424 211.12894 7.2005825 193.91225 7.2005825 172.24826 C 7.2005825 150.58426 24.415424 133.36708 46.079421 133.36708 z M 58.548774 137.49584 C 57.348206 137.49584 56.159794 137.53699 54.983995 137.61384 C 54.983185 137.6139 54.982356 137.61379 54.981536 137.61384 A 43.2 34.560001 0 0 0 54.978463 137.61433 C 46.359442 138.17854 38.45744 140.76611 32.015136 144.78323 C 31.088897 145.36079 30.192908 145.96812 29.329259 146.60299 A 43.2 34.560001 0 0 0 29.243213 146.66691 C 28.400064 147.29007 27.588188 147.93943 26.809329 148.61401 A 43.2 34.560001 0 0 0 26.734346 148.67843 C 25.940256 149.3697 25.180797 150.08671 24.458418 150.82811 A 43.2 34.560001 0 0 0 24.457189 150.82909 C 19.435664 155.98325 16.201584 162.30561 15.496685 169.20123 A 43.2 34.560001 0 0 0 15.496685 169.20221 C 15.400505 170.14346 15.349177 171.09492 15.349177 172.05601 C 15.349177 173.01713 15.400495 173.96851 15.496685 174.9098 C 16.201424 181.80597 19.435799 188.12846 24.457804 193.28292 C 25.181813 194.02602 25.943223 194.74478 26.739263 195.43752 A 43.2 34.560001 0 0 0 26.803797 195.49308 C 27.587207 196.17185 28.403973 196.82527 29.252432 197.45199 A 43.2 34.560001 0 0 0 29.321884 197.50361 C 30.187813 198.14044 31.086267 198.74958 32.015136 199.32878 C 38.45821 203.34638 46.361315 205.93389 54.981536 206.49768 C 56.158145 206.57463 57.347376 206.61568 58.548774 206.61568 C 59.750133 206.61568 60.939454 206.57462 62.116012 206.49768 L 62.116627 206.49768 A 43.2 34.560001 0 0 0 62.117242 206.49768 C 70.736773 205.93376 78.639719 203.34649 85.082412 199.32927 C 85.082862 199.32899 85.083192 199.32857 85.083642 199.32829 C 86.010401 198.75038 86.906649 198.14282 87.770748 197.50755 A 43.2 34.560001 0 0 0 87.851263 197.44756 C 88.694502 196.82447 89.506188 196.17498 90.285147 195.50045 A 43.2 34.560001 0 0 0 90.365047 195.43162 C 91.158626 194.74069 91.917796 194.02391 92.639745 193.28292 C 97.66115 188.12908 100.8956 181.80747 101.60086 174.91225 C 101.60101 174.91077 101.60133 174.90931 101.60148 174.90783 C 101.69754 173.96719 101.74899 173.01646 101.74899 172.05601 C 101.74899 171.73544 101.74262 171.41616 101.73178 171.09769 A 43.2 34.560001 0 0 0 101.72317 170.92118 C 101.71252 170.6571 101.69878 170.39357 101.68076 170.13102 A 43.2 34.560001 0 0 0 101.66786 169.96582 C 101.64686 169.68434 101.62224 169.40366 101.59287 169.12404 A 43.2 34.560001 0 0 0 101.5855 169.05913 C 100.89402 162.62034 97.996165 156.68683 93.49898 151.74315 C 93.49871 151.74286 93.498635 151.74246 93.498365 151.74217 A 43.2 34.560001 0 0 0 93.497136 151.74119 C 93.269056 151.4905 93.036995 151.24229 92.800775 150.99676 A 43.2 34.560001 0 0 0 92.729479 150.92252 C 92.49339 150.6785 92.254367 150.43652 92.010377 150.19776 C 92.004097 150.19162 91.998219 150.18522 91.991939 150.17908 A 43.2 34.560001 0 0 0 91.986407 150.17367 C 91.727517 149.92079 91.464808 149.67066 91.197239 149.42383 C 90.948349 149.19425 90.695061 148.96755 90.438801 148.74333 A 43.2 34.560001 0 0 0 90.194798 148.53387 C 90.013918 148.37819 89.832189 148.22318 89.647789 148.0702 A 43.2 34.560001 0 0 0 89.354616 147.83025 C 89.181487 147.68937 89.007062 147.54983 88.830963 147.41133 A 43.2 34.560001 0 0 0 88.531029 147.17679 C 88.3398 147.02927 88.146045 146.88389 87.951445 146.73919 A 43.2 34.560001 0 0 0 87.689618 146.54398 C 87.409339 146.33898 87.125968 146.13634 86.838988 145.93723 C 86.530459 145.72317 86.217787 145.513 85.901697 145.3059 C 85.899437 145.30442 85.897186 145.30295 85.894936 145.30147 A 43.2 34.560001 0 0 0 85.871581 145.28672 C 85.573121 145.09153 85.270665 144.90031 84.965635 144.71144 A 43.2 34.560001 0 0 0 84.872828 144.6544 C 84.565918 144.46543 84.255647 144.27978 83.942298 144.09732 C 83.941828 144.09705 83.941528 144.0966 83.941068 144.09633 A 43.2 34.560001 0 0 0 83.939839 144.09584 C 77.760236 140.49809 70.343358 138.17981 62.294866 137.62663 A 43.2 34.560001 0 0 0 62.213737 137.62073 C 61.864217 137.59723 61.513362 137.57754 61.161512 137.56074 A 43.2 34.560001 0 0 0 60.955001 137.55041 C 60.626821 137.536 60.2974 137.52501 59.967311 137.51649 A 43.2 34.560001 0 0 0 59.746663 137.5096 C 59.348584 137.50093 58.949484 137.49584 58.548774 137.49584 z "
     transform="matrix(2.38334334072899 0 0 2.97917917591124 94.0787739058406 43.4206793661819)" />
</svg>
